<svg id="Camada_1" data-name="Camada 1" xmlns="http://www.w3.org/2000/svg" viewBox="0 0 133.43 113.52"><defs><style>.cls-1,.cls-2{fill:#fdfdfd;}.cls-2{fill-rule:evenodd;}</style></defs><title>Icones</title><g id="Grupo_919" data-name="Grupo 919"><g id="Grupo_917" data-name="Grupo 917"><path id="Caminho_2968" data-name="Caminho 2968" class="cls-1" d="M84.09,91.47H49.34A17.36,17.36,0,0,1,32,74.12V39.37A17.35,17.35,0,0,1,49.34,22.05H84.09a17.34,17.34,0,0,1,17.32,17.32V74.12A17.35,17.35,0,0,1,84.09,91.47ZM49.34,29.35a10,10,0,0,0-10,10V74.12a10.05,10.05,0,0,0,10,10H84.09a10.05,10.05,0,0,0,10-10V39.37a10,10,0,0,0-10-10Z"/></g><g id="Grupo_918" data-name="Grupo 918"><path id="Caminho_2969" data-name="Caminho 2969" class="cls-2" d="M69.7,49.72v-3A1.58,1.58,0,0,1,71.07,45a1.41,1.41,0,0,1,.29,0h4.19V38.53H69.77c-6.42,0-7.86,4.75-7.86,7.81v3.38H58.19V57.2H62V75.87h7.47V57.2H75l.25-2.94.44-4.54Z"/></g></g></svg>