<svg id="Camada_1" data-name="Camada 1" xmlns="http://www.w3.org/2000/svg" viewBox="0 0 133.43 113.52"><defs><style>.cls-1{fill:#5b95d0;stroke:#5b95d0;stroke-miterlimit:10;stroke-width:7px;}.cls-1,.cls-2{fill-rule:evenodd;}.cls-2{fill:#fff;}</style></defs><title>Icones</title><g id="Grupo_505" data-name="Grupo 505"><path id="Caminho_1532" data-name="Caminho 1532" class="cls-1" d="M43.7,15.61h46a18.18,18.18,0,0,1,18.1,18.11v46A18.18,18.18,0,0,1,89.74,97.9h-46A18.17,18.17,0,0,1,25.59,79.75v-46A18.16,18.16,0,0,1,43.7,15.61Z"/><path id="Caminho_1533" data-name="Caminho 1533" class="cls-2" d="M70.68,47.43v-4a2.09,2.09,0,0,1,1.81-2.35,2.55,2.55,0,0,1,.39,0h5.54V32.6H70.76c-8.5,0-10.4,6.3-10.4,10.36v4.48H55.43v9.9h5V82.07h9.9V57.34h7.33l.33-3.9.58-6Z"/></g></svg>