<svg id="Camada_1" data-name="Camada 1" xmlns="http://www.w3.org/2000/svg" viewBox="0 0 133.43 113.52"><defs><style>.cls-1{fill:#fdfdfd;}</style></defs><title>Icones</title><g id="Grupo_916" data-name="Grupo 916"><g id="Grupo_915" data-name="Grupo 915"><g id="Grupo_910" data-name="Grupo 910"><g id="Grupo_909" data-name="Grupo 909"><path id="Caminho_2965" data-name="Caminho 2965" class="cls-1" d="M81.16,90.3H52.27A19.11,19.11,0,0,1,33.18,71.21V42.31A19.11,19.11,0,0,1,52.27,23.22H81.16a19.11,19.11,0,0,1,19.09,19.09v28.9A19.11,19.11,0,0,1,81.16,90.3ZM52.27,29A13.36,13.36,0,0,0,38.93,42.31v28.9A13.35,13.35,0,0,0,52.27,84.55H81.16A13.34,13.34,0,0,0,94.5,71.21V42.31A13.35,13.35,0,0,0,81.16,29Z"/></g></g><g id="Grupo_912" data-name="Grupo 912"><g id="Grupo_911" data-name="Grupo 911"><path id="Caminho_2966" data-name="Caminho 2966" class="cls-1" d="M66.72,73.93A17.18,17.18,0,1,1,83.89,56.76h0A17.19,17.19,0,0,1,66.72,73.93Zm0-28.6A11.43,11.43,0,1,0,78.14,56.76h0A11.44,11.44,0,0,0,66.72,45.33Z"/></g></g><g id="Grupo_914" data-name="Grupo 914"><g id="Grupo_913" data-name="Grupo 913"><path id="Caminho_2967" data-name="Caminho 2967" class="cls-1" d="M88.75,38.6a4.13,4.13,0,1,1-4.12-4.12,4.12,4.12,0,0,1,4.12,4.12Z"/></g></g></g></g></svg>