<svg id="Camada_1" data-name="Camada 1" xmlns="http://www.w3.org/2000/svg" xmlns:xlink="http://www.w3.org/1999/xlink" viewBox="0 0 181.5 79.91"><defs><style>.cls-1{fill:none;}.cls-2{fill:#b93025;}.cls-3{fill:#f8f7f7;}.cls-4{fill:#fff;}.cls-5{clip-path:url(#clip-path);}.cls-6{fill:#c03030;}.cls-7{fill:#e63839;}.cls-8{fill:#e63939;}.cls-9{fill:#e53838;}.cls-10{fill:#e43838;}.cls-11{fill:#e33838;}.cls-12{fill:#e23838;}.cls-13{fill:#e13838;}.cls-14{fill:#e03737;}.cls-15{fill:#df3736;}.cls-16{fill:#de3736;}.cls-17{fill:#dc3736;}.cls-18{fill:#dc3635;}.cls-19{fill:#da3635;}.cls-20{fill:#d83635;}.cls-21{fill:#d73534;}.cls-22{fill:#d53434;}.cls-23{fill:#d43433;}.cls-24{fill:#d33333;}.cls-25{fill:#d23433;}.cls-26{fill:#d13433;}.cls-27{fill:#d03333;}.cls-28{fill:#cf3332;}.cls-29{fill:#ce3332;}.cls-30{fill:#cd3332;}.cls-31{fill:#ca3231;}.cls-32{fill:#ca3331;}.cls-33{fill:#c93331;}.cls-34{fill:#c73331;}.cls-35{fill:#c63230;}.cls-36{fill:#c43231;}.cls-37{fill:#c23030;}.cls-38{fill:#c13030;}.cls-39{fill:#bf2f2f;}.cls-40{fill:#be2f2f;}.cls-41{fill:#bd2f2f;}.cls-42{fill:#bc2f2e;}.cls-43{fill:#bb2e2e;}.cls-44{fill:#ba2f2e;}.cls-45{fill:#b92e2e;}.cls-46{fill:#b82e2e;}.cls-47{fill:#b72d2c;}.cls-48{fill:#b52e2c;}.cls-49{fill:#b42e2c;}.cls-50{fill:#b32e2c;}.cls-51{fill:#b32d2b;}.cls-52{fill:#b12d2b;}.cls-53{fill:#b02d2b;}.cls-54{clip-path:url(#clip-path-2);}.cls-55{fill:#fecb39;}.cls-56{fill:#fecc38;}.cls-57{fill:#fecb36;}.cls-58{fill:#fdcb35;}.cls-59{fill:#fdca35;}.cls-60{fill:#fcca34;}.cls-61{fill:#fcc934;}.cls-62{fill:#fbc933;}.cls-63{fill:#fbc833;}.cls-64{fill:#fac833;}.cls-65{fill:#f9c632;}.cls-66{fill:#f8c633;}.cls-67{fill:#f7c531;}.cls-68{fill:#f5c432;}.cls-69{fill:#f4c332;}.cls-70{fill:#f2c130;}.cls-71{fill:#f0c030;}.cls-72{fill:#eebe30;}.cls-73{fill:#edbd30;}.cls-74{fill:#eabb31;}.cls-75{fill:#e7b82f;}.cls-76{fill:#e4b52d;}.cls-77{fill:#e0b22d;}.cls-78{fill:#dcaf2c;}.cls-79{fill:#d8ac2b;}.cls-80{fill:#d5a92b;}.cls-81{fill:#cea42b;}.cls-82{clip-path:url(#clip-path-3);}.cls-83{fill:#5c96d0;}.cls-84{fill:#5b95d0;}.cls-85{fill:#5a94cf;}.cls-86{fill:#5a93ce;}.cls-87{fill:#5891cd;}.cls-88{fill:#5890cc;}.cls-89{fill:#588fcc;}.cls-90{fill:#558ecb;}.cls-91{fill:#568ecb;}.cls-92{fill:#558dca;}.cls-93{fill:#538cca;}.cls-94{fill:#528bc9;}.cls-95{fill:#538bc9;}.cls-96{fill:#528ac8;}.cls-97{fill:#5188c7;}.cls-98{fill:#5089c8;}.cls-99{fill:#5087c6;}.cls-100{fill:#4f86c6;}.cls-101{fill:#4e85c5;}.cls-102{fill:#4d85c5;}.cls-103{fill:#4d84c4;}.cls-104{fill:#4c83c4;}.cls-105{fill:#4d83c3;}.cls-106{fill:#4c81c2;}.cls-107{fill:#4b80c2;}.cls-108{fill:#4a80c1;}.cls-109{fill:#497fc1;}.cls-110{fill:#497ec0;}.cls-111{fill:#487dc0;}.cls-112{fill:#487cbf;}.cls-113{fill:#477bbe;}.cls-114{fill:#467abe;}.cls-115{fill:#457abd;}.cls-116{fill:#4579bd;}.cls-117{fill:#4578bc;}.cls-118{fill:#4377bb;}.cls-119{clip-path:url(#clip-path-4);}.cls-120{clip-path:url(#clip-path-5);}.cls-121{clip-path:url(#clip-path-6);}.cls-122{fill:#de3a2d;}.cls-123{fill:#dd3a2e;}.cls-124{fill:#dc392e;}.cls-125{fill:#db392d;}.cls-126{fill:#da382d;}.cls-127{fill:#d8372d;}.cls-128{fill:#d8372c;}.cls-129{fill:#d7372c;}.cls-130{fill:#d6362c;}.cls-131{fill:#d5362c;}.cls-132{fill:#d3362c;}.cls-133{fill:#d3362b;}.cls-134{fill:#d2352b;}.cls-135{fill:#d1362a;}.cls-136{fill:#d0362a;}.cls-137{fill:#cf362a;}.cls-138{fill:#ce352a;}.cls-139{fill:#cd3529;}.cls-140{fill:#cc3529;}.cls-141{fill:#ca3429;}.cls-142{fill:#ca3528;}.cls-143{fill:#c83528;}.cls-144{fill:#c73528;}.cls-145{fill:#c63428;}.cls-146{fill:#c53328;}.cls-147{fill:#c43327;}.cls-148{fill:#c33227;}.cls-149{fill:#c23227;}.cls-150{fill:#c13227;}.cls-151{fill:#c03226;}.cls-152{fill:#bf3126;}.cls-153{fill:#be3126;}.cls-154{fill:#bd3126;}.cls-155{fill:#bc3026;}.cls-156{fill:#bb3025;}.cls-157{fill:#b93125;}.cls-158{fill:#b82f25;}.cls-159{fill:#b63024;}.cls-160{fill:#b53024;}.cls-161{fill:#b43024;}.cls-162{fill:#b32f24;}.cls-163{fill:#b22f25;}.cls-164{fill:#b12e23;}.cls-165{fill:#b02e23;}.cls-166{fill:#af2d23;}.cls-167{fill:#ae2d24;}.cls-168{fill:#ae2d23;}.cls-169{fill:#ad2c22;}.cls-170{fill:#ac2b23;}.cls-171{clip-path:url(#clip-path-7);}.cls-172{fill:#fcda33;}.cls-173{fill:#fbd934;}.cls-174{fill:#fad834;}.cls-175{fill:#fad733;}.cls-176{fill:#f9d633;}.cls-177{fill:#f7d634;}.cls-178{fill:#f5d533;}.cls-179{fill:#f5d433;}.cls-180{fill:#f4d333;}.cls-181{fill:#f3d234;}.cls-182{fill:#f1d031;}.cls-183{fill:#f0cf30;}.cls-184{fill:#efce30;}.cls-185{fill:#eece31;}.cls-186{fill:#edcd31;}.cls-187{fill:#eccc31;}.cls-188{fill:#ebcb30;}.cls-189{fill:#eaca30;}.cls-190{fill:#e8c931;}.cls-191{fill:#e7c831;}.cls-192{fill:#e6c730;}.cls-193{fill:#e5c62f;}.cls-194{fill:#e5c62e;}.cls-195{fill:#e3c52e;}.cls-196{fill:#e2c52e;}.cls-197{fill:#e2c32c;}.cls-198{fill:#e1c32d;}.cls-199{fill:#e0c22e;}.cls-200{fill:#dec02f;}.cls-201{fill:#dcbe2c;}.cls-202{fill:#dbbd2b;}.cls-203{fill:#dabd2c;}.cls-204{fill:#d9bc2b;}.cls-205{fill:#d8bb2a;}.cls-206{fill:#d6b92a;}.cls-207{clip-path:url(#clip-path-8);}.cls-208{opacity:0.36;}.cls-209{clip-path:url(#clip-path-9);}.cls-210{fill:#010101;}.cls-211{clip-path:url(#clip-path-10);}.cls-212{fill:#5fb23f;}.cls-213{fill:#5fb23e;}.cls-214{fill:#5eb23c;}.cls-215{fill:#5cb13b;}.cls-216{fill:#5db139;}.cls-217{fill:#5bb139;}.cls-218{fill:#5ab138;}.cls-219{fill:#58b037;}.cls-220{fill:#58b036;}.cls-221{fill:#57af36;}.cls-222{fill:#58ae35;}.cls-223{fill:#57ad34;}.cls-224{fill:#55ac35;}.cls-225{fill:#54ab34;}.cls-226{fill:#55aa34;}.cls-227{fill:#54a934;}.cls-228{fill:#54a833;}.cls-229{fill:#53a633;}.cls-230{fill:#52a533;}.cls-231{fill:#51a433;}.cls-232{fill:#51a333;}.cls-233{fill:#50a234;}.cls-234{fill:#4fa134;}.cls-235{fill:#4fa034;}.cls-236{fill:#4f9f34;}.cls-237{fill:#4e9e34;}.cls-238{fill:#4e9d34;}.cls-239{fill:#4d9c34;}.cls-240{fill:#4c9b34;}.cls-241{fill:#4b9934;}.cls-242{fill:#4b9834;}.cls-243{fill:#4b9734;}.cls-244{fill:#4a9734;}.cls-245{fill:#4a9534;}.cls-246{fill:#4a9434;}.cls-247{fill:#499434;}.cls-248{fill:#499334;}.cls-249{fill:#489234;}.cls-250{fill:#489134;}.cls-251{fill:#479034;}.cls-252{fill:#478f34;}.cls-253{fill:#458e34;}.cls-254{fill:#468c34;}.cls-255{fill:#448c34;}.cls-256{fill:#448b34;}.cls-257{fill:#448a33;}.cls-258{fill:#448933;}.cls-259{fill:#438833;}.cls-260{fill:#438733;}.cls-261{fill:#438633;}.cls-262{fill:#438533;}.cls-263{fill:#428433;}.cls-264{fill:#428332;}.cls-265{fill:#418232;}.cls-266{fill:#418132;}.cls-267{fill:#408032;}.cls-268{fill:#3f7f32;}.cls-269{fill:#407e31;}.cls-270{clip-path:url(#clip-path-11);}.cls-271{clip-path:url(#clip-path-12);}.cls-272{clip-path:url(#clip-path-13);}.cls-273{clip-path:url(#clip-path-14);}.cls-274{clip-path:url(#clip-path-15);}</style><clipPath id="clip-path"><path class="cls-1" d="M124.67,51.32a.44.44,0,0,0-.12-.32.37.37,0,0,0-.3-.14.45.45,0,0,0-.34.11.46.46,0,0,0-.15.32c0,.92-.05,1.84,0,2.75a.45.45,0,0,0,.24.39.54.54,0,0,0,.22,0,.43.43,0,0,0,.25-.07.41.41,0,0,0,.2-.38C124.62,53.13,124.63,52.22,124.67,51.32ZM124.4,54Z"/></clipPath><clipPath id="clip-path-2"><path class="cls-1" d="M125.77,51a.46.46,0,0,0-.37-.27.46.46,0,0,0-.44.18A3.56,3.56,0,0,0,124.4,54a.45.45,0,0,0,.32.32h.11a.46.46,0,0,0,.34-.14.43.43,0,0,0,.11-.43,2.64,2.64,0,0,1,.44-2.36A.43.43,0,0,0,125.77,51Z"/></clipPath><clipPath id="clip-path-3"><path class="cls-1" d="M123.07,52.18a.43.43,0,0,0-.44,0,.49.49,0,0,0-.25.41.46.46,0,0,0,.22.39,1.68,1.68,0,0,1,.8,1.3.47.47,0,0,0,.26.38.49.49,0,0,0,.21,0,.43.43,0,0,0,.44-.46A2.6,2.6,0,0,0,123.07,52.18Z"/></clipPath><clipPath id="clip-path-4"><path class="cls-1" d="M107.34,45.51c.32-5.33,18.32-9.63,23.31-9.32,3.65.22,5.7,16.86,6.87,19l-2.68,1.17a5.21,5.21,0,0,0-4.35-2.8,5.93,5.93,0,0,0-6.24,5.91c-.22,3.65,2.17,6.43,5.48,6.63a5.13,5.13,0,0,0,4.65-2.25l2.52,1.49a8,8,0,0,1-7.34,3.47C124.56,68.53,107,50.85,107.34,45.51Z"/></clipPath><clipPath id="clip-path-5"><path class="cls-1" d="M125.11,56.39a2.8,2.8,0,0,1-.7-.92,3.52,3.52,0,0,0-.68-.95,6.25,6.25,0,0,0-1.78-1.1l-.82-.34a11,11,0,0,1-1.32-.58,7.81,7.81,0,0,1-1.9-1.59l-.11-.11a10,10,0,0,0-1.38-1.29,10.72,10.72,0,0,0-1.17-.71c-.27-.14-.55-.3-.81-.47a6.34,6.34,0,0,1-1.31-1.23,5.3,5.3,0,0,0-1.86-1.55.47.47,0,0,0-.47.05.49.49,0,0,0-.19.43.4.4,0,0,0,.26.33,5.13,5.13,0,0,1,1.66,1.41A6.51,6.51,0,0,0,114,49.11c.26.16.53.31.79.45l0,0a8.19,8.19,0,0,1,1.34.85,10.12,10.12,0,0,1,1,1c.18.2.36.39.55.57a10.32,10.32,0,0,0,3.56,2.1,5,5,0,0,1,2.25,1.53,4.41,4.41,0,0,1,.3.5,2.54,2.54,0,0,0,.79,1,.46.46,0,0,0,.25.08.42.42,0,0,0,.35-.19A.45.45,0,0,0,125.11,56.39Z"/></clipPath><clipPath id="clip-path-6"><path class="cls-1" d="M126.12,44.78c-.05-.14-.11-.29-.17-.44a4.53,4.53,0,0,1-.2-2.72,5.09,5.09,0,0,1,.52-1.13c.48-.86,1-1.83.33-2.83a.48.48,0,0,0-.42-.2.49.49,0,0,0-.39.27.42.42,0,0,0,0,.42c.41.59.06,1.19-.36,1.89a5.56,5.56,0,0,0-.45.87,5.07,5.07,0,0,0-.31,2,7.1,7.1,0,0,0,.49,2,4.39,4.39,0,0,1,.34,2.65c-.07.27-.17.55-.25.79a6.84,6.84,0,0,0-.37,1.29,3.32,3.32,0,0,0,.14,1.39,3.84,3.84,0,0,1,.15,1,3.9,3.9,0,0,1-.42,1.28,5.25,5.25,0,0,0-.45,1.23,6.38,6.38,0,0,0,.07,2.25.42.42,0,0,0,.21.29.39.39,0,0,0,.21.06h.1a.46.46,0,0,0,.37-.55,5.26,5.26,0,0,1,.44-3.37,2.46,2.46,0,0,0,.32-1.61,4.15,4.15,0,0,0-.14-.61,3,3,0,0,1-.14-.93,4.65,4.65,0,0,1,.31-1.19l.09-.29a5.25,5.25,0,0,0,.4-2.13A5.33,5.33,0,0,0,126.12,44.78Z"/></clipPath><clipPath id="clip-path-7"><path class="cls-1" d="M125.32,56.58a12.1,12.1,0,0,1-1-2,10.5,10.5,0,0,0-1.19-2.27,7.85,7.85,0,0,1-1-2,8.8,8.8,0,0,0-1-2,13.66,13.66,0,0,1-2.11-4.11,7.25,7.25,0,0,0-1.73-3.48.46.46,0,0,0-.64.66,6.21,6.21,0,0,1,1.48,3c.11.38.23.78.36,1.17a11.15,11.15,0,0,0,1.5,2.66l.54.79a8,8,0,0,1,.79,1.77,7.47,7.47,0,0,0,1,2.06A10.55,10.55,0,0,1,123.52,55a11.63,11.63,0,0,0,1,2,.43.43,0,0,0,.37.2.5.5,0,0,0,.27-.08.45.45,0,0,0,.19-.28A.4.4,0,0,0,125.32,56.58Z"/></clipPath><clipPath id="clip-path-8"><path class="cls-1" d="M125.92,51a1.74,1.74,0,0,1,0-.22c-.25.17-.51.33-.77.49a3.25,3.25,0,0,1,.11.77,3.9,3.9,0,0,1-.42,1.28,5.25,5.25,0,0,0-.45,1.23.34.34,0,0,1,0,.1,12.45,12.45,0,0,0-1.06-2.09c-.25.18-.5.35-.76.51a8.57,8.57,0,0,1,.56,1,7.69,7.69,0,0,0-1.12-.59l-.07,0-.24.12-.29.2a2.39,2.39,0,0,1-.22.23l-.08.08.23.1a5,5,0,0,1,2.25,1.53,4.41,4.41,0,0,1,.3.5,2.54,2.54,0,0,0,.79,1h0a.46.46,0,0,0,.3.11.5.5,0,0,0,.27-.08.45.45,0,0,0,.19-.28.4.4,0,0,0-.07-.33s0,0,0,0a5.23,5.23,0,0,1,.44-3.36,2.46,2.46,0,0,0,.32-1.61A4.15,4.15,0,0,0,125.92,51Z"/></clipPath><clipPath id="clip-path-9"><path class="cls-1" d="M128.9,51.7c-1-1-3.43.15-4.45.73A6.79,6.79,0,0,0,121.71,56c-.1.28.52.49.35.66l1.29.72,2.06.36,2.78-1.67v-3a3.62,3.62,0,0,0,1-1.46Z"/></clipPath><clipPath id="clip-path-10"><path class="cls-1" d="M133.44,12.53a12.06,12.06,0,0,0-10.3-4.64A11.37,11.37,0,0,0,122,8a12.24,12.24,0,0,0-9.18,6.2c-2.48,4.64-1.21,10.17,1.33,14.5,1.89,3.21,4.67,6.07,8.37,7a10.49,10.49,0,0,0,2,.29l-.08.24L123.84,38a1,1,0,0,0,.92,1.32,2.27,2.27,0,0,0,.84-.25l.38-.17s.33-.24.36-.22a3.37,3.37,0,0,0,1.32.25,1,1,0,0,0,.8-1.57l-1-1.53-.14-.21c4.1-1.27,6.67-5.43,7.85-9.4A19.31,19.31,0,0,0,136,20,13,13,0,0,0,133.44,12.53Z"/></clipPath><clipPath id="clip-path-11"><path class="cls-1" d="M102.07,20.16A12.1,12.1,0,0,0,91,22.27c-.3.24-.6.49-.88.75a12.24,12.24,0,0,0-4,10.35c.63,5.23,4.84,9,9.41,11.12,3.39,1.55,7.3,2.29,10.88.95a9.18,9.18,0,0,0,1.8-.9l.08.25.54,1.76a1,1,0,0,0,1.82.3,2.63,2.63,0,0,0,.52-.8.55.55,0,0,1,.12-.21.72.72,0,0,1,.25-.12,2.07,2.07,0,0,0,1.28-1,1,1,0,0,0-.58-1.31l-1.72-.66-.23-.09c2.63-3.39,2.35-8.27,1-12.2a19.49,19.49,0,0,0-2.91-5.57A13.07,13.07,0,0,0,102.07,20.16Z"/></clipPath><clipPath id="clip-path-12"><path class="cls-1" d="M113.62,34.39A17.74,17.74,0,0,0,115.44,30c.1-.37,1-4.53,1-4.54l-4.3-.14c.09-1,.18-2.39-.18-2.59l-10.75-6c-.24-.46-.43-.73-.52-.7l-.44.17-2-1.11L98,17l-3.13,1.19-.27,1.29a18.33,18.33,0,0,0-2.69-1.74L87,22.6l0,1.46a13.86,13.86,0,0,0-1.29-.59L83.86,37l2.26,7.83s2.33,3.14.66.06c-.62-1.15-.22-2.52.61-4V48s2,.35,3.5.57a24.79,24.79,0,0,0,.89,4.15,13.74,13.74,0,0,0,4-.53c-.36-.56-1.22-.49-1.74-.9A1.48,1.48,0,0,1,93.52,50a3.91,3.91,0,0,1,.39-1.37c.26-.6.54-1.18.83-1.75l1,.52-.91,1.67,6.59,4s4.5-1.33,4.19-1.58c-.56-.45-.44-2-.33-3L109,50.29l4.39-3.71,4.42-5.37.41-4.78ZM90.26,45l.27,1.37c0,.2.16.92.31,1.8C89.92,47.74,89.83,46.6,90.26,45Z"/></clipPath><clipPath id="clip-path-13"><path class="cls-1" d="M117.9,14.25a12.11,12.11,0,0,0-11.15-1.88c-.37.12-.73.25-1.09.4a12.24,12.24,0,0,0-7.31,8.33c-1.22,5.11,1.41,10.14,5,13.68,2.64,2.64,6,4.69,9.87,4.68a9.67,9.67,0,0,0,2-.22l0,.26-.11,1.84a1,1,0,0,0,.39.86,1.08,1.08,0,0,0,1.07.11,2.54,2.54,0,0,0,1-.64s0-.06.09-.07l.1,0a3,3,0,0,0,1.65-.46,1,1,0,0,0,.31-1.21.93.93,0,0,0-.26-.36L118,38.33l-.19-.17c3.65-2.26,5.08-6.93,5.21-11.07a19.09,19.09,0,0,0-.8-6.24A13,13,0,0,0,117.9,14.25Z"/></clipPath><clipPath id="clip-path-14"><path class="cls-1" d="M127,28.07c.22-.32,2.56-3.89,2.51-3.91l-4-1.63c.44-.91,1-2.18.74-2.5,0,0-5-5.83-8-9.32-.07-.52-.15-.84-.25-.84h-.47l-1.49-1.74-1,1.76-3.34,0L111.08,11a19.18,19.18,0,0,0-1.91-2.57l-6.25,2.83-.47,1.39c-.59-.63-1-1-1-1L95,23.74l-.59,8.12s1.09,3.75.59.29c-.18-1.3.67-2.44,2-3.59l-2.47,6.69s1.77,1,3.08,1.75a25.21,25.21,0,0,0-.6,4.2,13.78,13.78,0,0,0,3.91.88c-.14-.65-1-.88-1.32-1.44a1.55,1.55,0,0,1,0-1.38,4.09,4.09,0,0,1,.85-1.14c.44-.47.91-.92,1.39-1.36,0,0,.3.35.75.84l-1.43,1.25,4.78,6.06s4.68.31,4.48,0c-.37-.63.29-2.06.73-2.93l2.83,2.93,5.4-2,6-3.51,2-4.34-3.56-3.5A17.57,17.57,0,0,0,127,28.07ZM98.18,33.48,98,34.86c0,.2-.17.91-.33,1.79C96.92,35.89,97.23,34.79,98.18,33.48Z"/></clipPath><clipPath id="clip-path-15"><path class="cls-2" d="M133.44,12.53a12.06,12.06,0,0,0-10.3-4.64A11.37,11.37,0,0,0,122,8a12.24,12.24,0,0,0-9.18,6.2c-2.48,4.64-1.21,10.17,1.33,14.5,1.89,3.21,4.67,6.07,8.37,7a10.49,10.49,0,0,0,2,.29l-.08.24L123.84,38a1,1,0,0,0,.92,1.32,2.27,2.27,0,0,0,.84-.25l.38-.17s.33-.24.36-.22a3.37,3.37,0,0,0,1.32.25,1,1,0,0,0,.8-1.57l-1-1.53-.14-.21c4.1-1.27,6.67-5.43,7.85-9.4A19.31,19.31,0,0,0,136,20,13,13,0,0,0,133.44,12.53Z"/></clipPath></defs><title>Icones_Maratona</title><path class="cls-3" d="M37.7,54.67l-6.78,16.4h-.26l-6.78-16.4v16.4H23V53.68h1.33l6.42,15.57L37.2,53.68h1.33V71.07H37.7Z"/><path class="cls-4" d="M38.72,71.26H37.51V55.62L31,71.26h-.51L24.07,55.62V71.26H22.85V53.49H24.5l6.29,15.26,6.29-15.26h1.64Zm-.83-.38h.45v-17h-.45Zm-7.11,0h0l7-17h-.49L30.79,69.74,24.25,53.87h-.5Zm-7.55,0h.46v-17h-.46Z"/><path class="cls-3" d="M50.55,69.54a5.57,5.57,0,0,1-4.35,1.85,4.2,4.2,0,1,1,0-8.4,5.54,5.54,0,0,1,4.35,1.85V62c0-2-1.61-3.13-3.54-3.13a4.87,4.87,0,0,0-4,2l-.6-.52A5.55,5.55,0,0,1,47,58.17c2.47,0,4.32,1.25,4.32,3.8v9.1h-.78Zm0-3.92a5.1,5.1,0,0,0-4.14-1.93,3.5,3.5,0,1,0,0,7,5.08,5.08,0,0,0,4.14-1.93Z"/><path class="cls-4" d="M46.2,71.58a4.41,4.41,0,0,1-4.6-4.39,4.35,4.35,0,0,1,4.6-4.39,5.67,5.67,0,0,1,4.16,1.58V62c0-2-1.68-2.94-3.35-2.94A4.68,4.68,0,0,0,43.11,61l-.12.15-.89-.77.12-.14A5.68,5.68,0,0,1,47,58c2.78,0,4.51,1.53,4.51,4v9.29H50.36V70A5.71,5.71,0,0,1,46.2,71.58Zm0-8.4a4,4,0,0,0-4.22,4,4,4,0,0,0,4.22,4,5.35,5.35,0,0,0,4.21-1.79l.33-.36v1.83h.41V62c0-2.26-1.55-3.62-4.14-3.62a5.33,5.33,0,0,0-4.38,2l.31.27A5,5,0,0,1,47,58.68c2.23,0,3.73,1.33,3.73,3.32v3.33L50.41,65A5.35,5.35,0,0,0,46.2,63.18Zm.21,7.69a3.69,3.69,0,1,1,0-7.36,5.28,5.28,0,0,1,4.29,2l0,0v3.26l0,.05A5.28,5.28,0,0,1,46.41,70.87Zm0-7a3.31,3.31,0,1,0,0,6.61,4.9,4.9,0,0,0,4-1.8v-3A4.91,4.91,0,0,0,46.41,63.88Z"/><path class="cls-3" d="M55.17,58.48H56v2.29a5.43,5.43,0,0,1,4.33-2.53v.94c-.24,0-.39,0-.63,0A5,5,0,0,0,56,61.63v9.44h-.78Z"/><path class="cls-4" d="M56.14,71.26H55v-13h1.16v1.94a5.3,5.3,0,0,1,4.14-2.17h.19v1.33l-.21,0c-.23,0-.38,0-.61,0a4.86,4.86,0,0,0-3.51,2.33Zm-.78-.38h.4V61.59l0,0A5.22,5.22,0,0,1,59.65,59h.44v-.54a5.26,5.26,0,0,0-4,2.45l-.34.45V58.67h-.4Z"/><path class="cls-3" d="M70.58,69.54a5.58,5.58,0,0,1-4.36,1.85,4.2,4.2,0,1,1,0-8.4,5.54,5.54,0,0,1,4.36,1.85V62c0-2-1.62-3.13-3.55-3.13a4.85,4.85,0,0,0-4,2l-.6-.52A5.54,5.54,0,0,1,67,58.17c2.48,0,4.33,1.25,4.33,3.8v9.1h-.78Zm0-3.92a5.12,5.12,0,0,0-4.15-1.93,3.5,3.5,0,1,0,0,7,5.09,5.09,0,0,0,4.15-1.93Z"/><path class="cls-4" d="M66.22,71.58a4.41,4.41,0,0,1-4.59-4.39,4.35,4.35,0,0,1,4.59-4.39,5.69,5.69,0,0,1,4.17,1.58V62c0-2-1.69-2.94-3.36-2.94A4.66,4.66,0,0,0,63.14,61l-.13.15-.88-.77.12-.14A5.68,5.68,0,0,1,67,58c2.79,0,4.52,1.53,4.52,4v9.29H70.39V70A5.73,5.73,0,0,1,66.22,71.58Zm0-8.4a4,4,0,0,0-4.21,4,4,4,0,0,0,4.21,4,5.36,5.36,0,0,0,4.22-1.79l.33-.36v1.83h.4V62c0-2.26-1.55-3.62-4.14-3.62a5.3,5.3,0,0,0-4.37,2l.31.27A5,5,0,0,1,67,58.68c2.24,0,3.74,1.33,3.74,3.32v3.33L70.44,65A5.36,5.36,0,0,0,66.22,63.18Zm.21,7.69a3.69,3.69,0,1,1,0-7.36,5.3,5.3,0,0,1,4.3,2l0,0v3.26l0,.05A5.3,5.3,0,0,1,66.43,70.87Zm0-7a3.31,3.31,0,1,0,0,6.61,4.91,4.91,0,0,0,4-1.8v-3A4.92,4.92,0,0,0,66.43,63.88Z"/><path class="cls-3" d="M75.35,68.86V59.18H73.26v-.7h2.09V55h.78v3.44h2.56v.7H76.13v9.68c0,1.07.42,1.82,1.36,1.82A2,2,0,0,0,79,70l.47.6a2.58,2.58,0,0,1-2,.79C76,71.39,75.35,70.42,75.35,68.86Z"/><path class="cls-4" d="M77.49,71.58c-1.5,0-2.33-1-2.33-2.72V59.37H73.08V58.29h2.08V54.85h1.16v3.44h2.56v1.08H76.32v9.49c0,.61.15,1.63,1.17,1.63a1.79,1.79,0,0,0,1.34-.61l.15-.17.72.91-.12.12A2.75,2.75,0,0,1,77.49,71.58ZM73.45,59h2.09v9.87c0,1.55.66,2.34,1.95,2.34a2.31,2.31,0,0,0,1.7-.62L79,70.29a2.17,2.17,0,0,1-1.47.58c-1,0-1.55-.73-1.55-2V59H78.5v-.32H75.94V55.23h-.4v3.44H73.45Z"/><path class="cls-3" d="M80.54,64.76c0-3.7,2.32-6.59,5.87-6.59s5.87,2.89,5.87,6.59-2.3,6.63-5.87,6.63S80.54,68.47,80.54,64.76Zm10.87,0c0-3.05-1.77-5.89-5-5.89s-5,2.84-5,5.89,1.8,5.92,5,5.92S91.41,67.84,91.41,64.76Z"/><path class="cls-4" d="M86.41,71.58c-3.51,0-6.06-2.87-6.06-6.82S82.9,58,86.41,58s6,2.79,6,6.78S89.92,71.58,86.41,71.58Zm0-13.23c-3.29,0-5.68,2.7-5.68,6.41s2.39,6.44,5.68,6.44,5.68-2.65,5.68-6.44S89.75,58.35,86.41,58.35Zm0,12.52c-3.41,0-5.2-3.07-5.2-6.11s1.79-6.08,5.2-6.08,5.19,3.06,5.19,6.08S89.82,70.87,86.41,70.87Zm0-11.81c-3.17,0-4.82,2.87-4.82,5.7s1.65,5.73,4.82,5.73c2.32,0,4.82-1.79,4.82-5.73S88.73,59.06,86.41,59.06Z"/><path class="cls-3" d="M103.93,62.29c0-2.64-1.3-3.42-3.26-3.42a6,6,0,0,0-4.46,2.37v9.83h-.78V58.48h.78v2a6.52,6.52,0,0,1,4.57-2.29c2.5,0,3.93,1.14,3.93,4.12v8.78h-.78Z"/><path class="cls-4" d="M104.9,71.26h-1.16v-9c0-2.27-.92-3.23-3.07-3.23A5.85,5.85,0,0,0,96.4,61.3v10H95.24v-13H96.4V60a6.68,6.68,0,0,1,4.38-2c2.77,0,4.12,1.41,4.12,4.31Zm-.78-.38h.4V62.29c0-2.69-1.19-3.94-3.74-3.94a6.27,6.27,0,0,0-4.42,2.23L96,61V58.67h-.4V70.88H96v-9.7l0,0a6.1,6.1,0,0,1,4.61-2.45c2.35,0,3.45,1.15,3.45,3.61Z"/><path class="cls-3" d="M116.68,69.54a5.57,5.57,0,0,1-4.35,1.85,4.21,4.21,0,1,1,0-8.4,5.54,5.54,0,0,1,4.35,1.85V62c0-2-1.61-3.13-3.54-3.13a4.87,4.87,0,0,0-4,2l-.6-.52a5.55,5.55,0,0,1,4.65-2.16c2.47,0,4.33,1.25,4.33,3.8v9.1h-.79Zm0-3.92a5.1,5.1,0,0,0-4.14-1.93,3.5,3.5,0,1,0,0,7,5.08,5.08,0,0,0,4.14-1.93Z"/><path class="cls-4" d="M112.33,71.58a4.41,4.41,0,0,1-4.6-4.39,4.35,4.35,0,0,1,4.6-4.39,5.67,5.67,0,0,1,4.16,1.58V62c0-2-1.68-2.94-3.35-2.94a4.68,4.68,0,0,0-3.9,1.91l-.12.15-.89-.77.12-.14A5.68,5.68,0,0,1,113.14,58c2.78,0,4.51,1.53,4.51,4v9.29h-1.16V70A5.71,5.71,0,0,1,112.33,71.58Zm0-8.4a4,4,0,0,0-4.22,4,4,4,0,0,0,4.22,4,5.35,5.35,0,0,0,4.21-1.79l.33-.36v1.83h.41V62c0-2.26-1.55-3.62-4.14-3.62a5.33,5.33,0,0,0-4.38,2l.31.27a5,5,0,0,1,4.07-1.9c2.23,0,3.73,1.33,3.73,3.32v3.33l-.33-.36A5.35,5.35,0,0,0,112.33,63.18Zm.21,7.69a3.69,3.69,0,1,1,0-7.36,5.28,5.28,0,0,1,4.29,2l0,0v3.26l0,.05A5.28,5.28,0,0,1,112.54,70.87Zm0-7a3.31,3.31,0,1,0,0,6.61,4.9,4.9,0,0,0,3.95-1.8v-3A4.91,4.91,0,0,0,112.54,63.88Z"/><g class="cls-5"><rect class="cls-6" x="124.4" y="54.03"/><rect class="cls-7" x="123.71" y="50.85" width="0.01" height="3.63"/><rect class="cls-7" x="123.72" y="50.85" width="0.02" height="3.63"/><rect class="cls-8" x="123.74" y="50.85" width="0.02" height="3.63"/><rect class="cls-9" x="123.76" y="50.85" width="0.02" height="3.63"/><rect class="cls-10" x="123.78" y="50.85" width="0.02" height="3.63"/><rect class="cls-11" x="123.79" y="50.85" width="0.02" height="3.63"/><rect class="cls-12" x="123.81" y="50.85" width="0.02" height="3.63"/><rect class="cls-13" x="123.83" y="50.85" width="0.02" height="3.63"/><rect class="cls-14" x="123.85" y="50.85" width="0.02" height="3.63"/><rect class="cls-15" x="123.86" y="50.85" width="0.02" height="3.63"/><rect class="cls-16" x="123.88" y="50.85" width="0.02" height="3.63"/><rect class="cls-17" x="123.9" y="50.85" width="0.02" height="3.63"/><rect class="cls-18" x="123.92" y="50.85" width="0.02" height="3.63"/><rect class="cls-19" x="123.93" y="50.85" width="0.02" height="3.63"/><rect class="cls-19" x="123.95" y="50.85" width="0.02" height="3.63"/><rect class="cls-20" x="123.97" y="50.85" width="0.02" height="3.63"/><rect class="cls-21" x="123.99" y="50.85" width="0.02" height="3.63"/><rect class="cls-21" x="124" y="50.85" width="0.02" height="3.63"/><rect class="cls-22" x="124.02" y="50.85" width="0.02" height="3.63"/><rect class="cls-22" x="124.04" y="50.85" width="0.02" height="3.63"/><rect class="cls-23" x="124.06" y="50.85" width="0.02" height="3.63"/><rect class="cls-24" x="124.07" y="50.85" width="0.02" height="3.63"/><rect class="cls-25" x="124.09" y="50.85" width="0.02" height="3.63"/><rect class="cls-26" x="124.11" y="50.85" width="0.02" height="3.63"/><rect class="cls-27" x="124.13" y="50.85" width="0.02" height="3.63"/><rect class="cls-28" x="124.14" y="50.85" width="0.02" height="3.63"/><rect class="cls-29" x="124.16" y="50.85" width="0.02" height="3.63"/><rect class="cls-30" x="124.18" y="50.85" width="0.02" height="3.63"/><rect class="cls-31" x="124.2" y="50.85" width="0.02" height="3.63"/><rect class="cls-32" x="124.21" y="50.85" width="0.02" height="3.63"/><rect class="cls-33" x="124.23" y="50.85" width="0.02" height="3.63"/><rect class="cls-34" x="124.25" y="50.85" width="0.02" height="3.63"/><rect class="cls-35" x="124.27" y="50.85" width="0.02" height="3.63"/><rect class="cls-35" x="124.28" y="50.85" width="0.02" height="3.63"/><rect class="cls-36" x="124.3" y="50.85" width="0.02" height="3.63"/><rect class="cls-36" x="124.32" y="50.85" width="0.02" height="3.63"/><rect class="cls-37" x="124.34" y="50.85" width="0.02" height="3.63"/><rect class="cls-37" x="124.35" y="50.85" width="0.02" height="3.63"/><rect class="cls-38" x="124.37" y="50.85" width="0.02" height="3.63"/><rect class="cls-6" x="124.39" y="50.85" width="0.02" height="3.63"/><rect class="cls-39" x="124.41" y="50.85" width="0.02" height="3.63"/><rect class="cls-40" x="124.42" y="50.85" width="0.02" height="3.63"/><rect class="cls-41" x="124.44" y="50.85" width="0.02" height="3.63"/><rect class="cls-42" x="124.46" y="50.85" width="0.02" height="3.63"/><rect class="cls-43" x="124.48" y="50.85" width="0.02" height="3.63"/><rect class="cls-44" x="124.49" y="50.85" width="0.02" height="3.63"/><rect class="cls-45" x="124.51" y="50.85" width="0.02" height="3.63"/><rect class="cls-46" x="124.53" y="50.85" width="0.02" height="3.63"/><rect class="cls-47" x="124.55" y="50.85" width="0.02" height="3.63"/><rect class="cls-48" x="124.56" y="50.85" width="0.02" height="3.63"/><rect class="cls-49" x="124.58" y="50.85" width="0.02" height="3.63"/><rect class="cls-50" x="124.6" y="50.85" width="0.02" height="3.63"/><rect class="cls-51" x="124.62" y="50.85" width="0.02" height="3.63"/><rect class="cls-52" x="124.63" y="50.85" width="0.02" height="3.63"/><rect class="cls-53" x="124.65" y="50.85" width="0.02" height="3.63"/><rect class="cls-53" x="124.67" y="50.85" width="0.01" height="3.63"/></g><g class="cls-54"><rect class="cls-55" x="124.09" y="50.68" width="0.17" height="3.65"/><rect class="cls-55" x="124.26" y="50.68" width="0.03" height="3.65"/><rect class="cls-55" x="124.29" y="50.68" width="0.03" height="3.65"/><rect class="cls-55" x="124.33" y="50.68" width="0.03" height="3.65"/><rect class="cls-55" x="124.36" y="50.68" width="0.03" height="3.65"/><rect class="cls-55" x="124.39" y="50.68" width="0.03" height="3.65"/><rect class="cls-55" x="124.42" y="50.68" width="0.03" height="3.65"/><rect class="cls-55" x="124.46" y="50.68" width="0.03" height="3.65"/><rect class="cls-55" x="124.49" y="50.68" width="0.03" height="3.65"/><rect class="cls-55" x="124.52" y="50.68" width="0.03" height="3.65"/><rect class="cls-55" x="124.55" y="50.68" width="0.03" height="3.65"/><rect class="cls-55" x="124.58" y="50.68" width="0.03" height="3.65"/><rect class="cls-55" x="124.62" y="50.68" width="0.03" height="3.65"/><rect class="cls-55" x="124.65" y="50.68" width="0.03" height="3.65"/><rect class="cls-55" x="124.68" y="50.68" width="0.03" height="3.65"/><rect class="cls-55" x="124.71" y="50.68" width="0.03" height="3.65"/><rect class="cls-55" x="124.75" y="50.68" width="0.03" height="3.65"/><rect class="cls-55" x="124.78" y="50.68" width="0.03" height="3.65"/><rect class="cls-55" x="124.81" y="50.68" width="0.03" height="3.65"/><rect class="cls-55" x="124.84" y="50.68" width="0.03" height="3.65"/><rect class="cls-56" x="124.87" y="50.68" width="0.03" height="3.65"/><rect class="cls-57" x="124.91" y="50.68" width="0.03" height="3.65"/><rect class="cls-57" x="124.94" y="50.68" width="0.03" height="3.65"/><rect class="cls-57" x="124.97" y="50.68" width="0.03" height="3.65"/><rect class="cls-57" x="125" y="50.68" width="0.03" height="3.65"/><rect class="cls-58" x="125.03" y="50.68" width="0.03" height="3.65"/><rect class="cls-59" x="125.07" y="50.68" width="0.03" height="3.65"/><rect class="cls-60" x="125.1" y="50.68" width="0.03" height="3.65"/><rect class="cls-61" x="125.13" y="50.68" width="0.03" height="3.65"/><rect class="cls-62" x="125.16" y="50.68" width="0.03" height="3.65"/><rect class="cls-63" x="125.2" y="50.68" width="0.03" height="3.65"/><rect class="cls-64" x="125.23" y="50.68" width="0.03" height="3.65"/><rect class="cls-65" x="125.26" y="50.68" width="0.03" height="3.65"/><rect class="cls-66" x="125.29" y="50.68" width="0.03" height="3.65"/><rect class="cls-67" x="125.32" y="50.68" width="0.03" height="3.65"/><rect class="cls-68" x="125.36" y="50.68" width="0.03" height="3.65"/><rect class="cls-69" x="125.39" y="50.68" width="0.03" height="3.65"/><rect class="cls-70" x="125.42" y="50.68" width="0.03" height="3.65"/><rect class="cls-71" x="125.45" y="50.68" width="0.03" height="3.65"/><rect class="cls-72" x="125.49" y="50.68" width="0.03" height="3.65"/><rect class="cls-73" x="125.52" y="50.68" width="0.03" height="3.65"/><rect class="cls-74" x="125.55" y="50.68" width="0.03" height="3.65"/><rect class="cls-75" x="125.58" y="50.68" width="0.03" height="3.65"/><rect class="cls-76" x="125.61" y="50.68" width="0.03" height="3.65"/><rect class="cls-77" x="125.65" y="50.68" width="0.03" height="3.65"/><rect class="cls-78" x="125.68" y="50.68" width="0.03" height="3.65"/><rect class="cls-79" x="125.71" y="50.68" width="0.03" height="3.65"/><rect class="cls-80" x="125.74" y="50.68" width="0.03" height="3.65"/><rect class="cls-81" x="125.78" y="50.68" width="0.03" height="3.65"/><rect class="cls-81" x="125.81" y="50.68" width="0.03" height="3.65"/></g><g class="cls-82"><rect class="cls-83" x="122.38" y="52.09" height="2.6"/><rect class="cls-83" x="122.38" y="52.09" width="0.04" height="2.6"/><rect class="cls-84" x="122.43" y="52.09" width="0.04" height="2.6"/><rect class="cls-85" x="122.47" y="52.09" width="0.04" height="2.6"/><rect class="cls-85" x="122.52" y="52.09" width="0.04" height="2.6"/><rect class="cls-85" x="122.56" y="52.09" width="0.04" height="2.6"/><rect class="cls-86" x="122.61" y="52.09" width="0.04" height="2.6"/><rect class="cls-87" x="122.65" y="52.09" width="0.04" height="2.6"/><rect class="cls-88" x="122.7" y="52.09" width="0.04" height="2.6"/><rect class="cls-89" x="122.74" y="52.09" width="0.04" height="2.6"/><rect class="cls-90" x="122.79" y="52.09" width="0.04" height="2.6"/><rect class="cls-91" x="122.83" y="52.09" width="0.04" height="2.6"/><rect class="cls-91" x="122.87" y="52.09" width="0.04" height="2.6"/><rect class="cls-92" x="122.92" y="52.09" width="0.04" height="2.6"/><rect class="cls-93" x="122.96" y="52.09" width="0.04" height="2.6"/><rect class="cls-94" x="123.01" y="52.09" width="0.04" height="2.6"/><rect class="cls-95" x="123.05" y="52.09" width="0.04" height="2.6"/><rect class="cls-96" x="123.1" y="52.09" width="0.04" height="2.6"/><rect class="cls-97" x="123.14" y="52.09" width="0.04" height="2.6"/><rect class="cls-98" x="123.19" y="52.09" width="0.04" height="2.6"/><rect class="cls-97" x="123.23" y="52.09" width="0.04" height="2.6"/><rect class="cls-99" x="123.28" y="52.09" width="0.04" height="2.6"/><rect class="cls-100" x="123.32" y="52.09" width="0.04" height="2.6"/><rect class="cls-101" x="123.37" y="52.09" width="0.04" height="2.6"/><rect class="cls-102" x="123.41" y="52.09" width="0.04" height="2.6"/><rect class="cls-103" x="123.46" y="52.09" width="0.04" height="2.6"/><rect class="cls-103" x="123.5" y="52.09" width="0.04" height="2.6"/><rect class="cls-104" x="123.55" y="52.09" width="0.04" height="2.6"/><rect class="cls-105" x="123.59" y="52.09" width="0.04" height="2.6"/><rect class="cls-106" x="123.64" y="52.09" width="0.04" height="2.6"/><rect class="cls-107" x="123.68" y="52.09" width="0.04" height="2.6"/><rect class="cls-108" x="123.73" y="52.09" width="0.04" height="2.6"/><rect class="cls-109" x="123.77" y="52.09" width="0.04" height="2.6"/><rect class="cls-109" x="123.82" y="52.09" width="0.04" height="2.6"/><rect class="cls-110" x="123.86" y="52.09" width="0.04" height="2.6"/><rect class="cls-111" x="123.91" y="52.09" width="0.04" height="2.6"/><rect class="cls-112" x="123.95" y="52.09" width="0.04" height="2.6"/><rect class="cls-113" x="124" y="52.09" width="0.04" height="2.6"/><rect class="cls-114" x="124.04" y="52.09" width="0.04" height="2.6"/><rect class="cls-115" x="124.08" y="52.09" width="0.04" height="2.6"/><rect class="cls-115" x="124.13" y="52.09" width="0.04" height="2.6"/><rect class="cls-116" x="124.17" y="52.09" width="0.04" height="2.6"/><rect class="cls-117" x="124.22" y="52.09" width="0.04" height="2.6"/><rect class="cls-118" x="124.26" y="52.09" width="0.04" height="2.6"/><rect class="cls-118" x="124.31" y="52.09" width="0.01" height="2.6"/></g><path class="cls-3" d="M121.13,59.3a8.74,8.74,0,0,1,9.52-8.43,7.92,7.92,0,0,1,6.87,4.34l-2.68,1.17a5.21,5.21,0,0,0-4.35-2.8,5.93,5.93,0,0,0-6.24,5.91c-.22,3.65,2.17,6.43,5.48,6.63a5.13,5.13,0,0,0,4.65-2.25l2.52,1.49a8,8,0,0,1-7.34,3.47A8.73,8.73,0,0,1,121.13,59.3Z"/><path class="cls-3" d="M140.19,51.74l3,.18-1,17.37-3.05-.19Z"/><path class="cls-3" d="M154.76,62.16c.12-1.95-.83-2.66-2.37-2.76a4.18,4.18,0,0,0-3.33,1.5l-.53,8.77-2.73-.16.76-12.58,2.73.17-.1,1.72a6,6,0,0,1,4.55-1.76c2.7.16,4,1.7,3.81,4.28L157,70.19,154.28,70Z"/><g class="cls-119"><g class="cls-120"><rect class="cls-83" x="110.59" y="45.48" width="0.02" height="11.75"/><rect class="cls-83" x="110.61" y="45.48" width="0.34" height="11.75"/><rect class="cls-84" x="110.95" y="45.48" width="0.34" height="11.75"/><rect class="cls-85" x="111.29" y="45.48" width="0.34" height="11.75"/><rect class="cls-85" x="111.63" y="45.48" width="0.34" height="11.75"/><rect class="cls-85" x="111.98" y="45.48" width="0.34" height="11.75"/><rect class="cls-86" x="112.32" y="45.48" width="0.34" height="11.75"/><rect class="cls-87" x="112.66" y="45.48" width="0.34" height="11.75"/><rect class="cls-88" x="113" y="45.48" width="0.34" height="11.75"/><rect class="cls-89" x="113.34" y="45.48" width="0.34" height="11.75"/><rect class="cls-90" x="113.69" y="45.48" width="0.34" height="11.75"/><rect class="cls-91" x="114.03" y="45.48" width="0.34" height="11.75"/><rect class="cls-91" x="114.37" y="45.48" width="0.34" height="11.75"/><rect class="cls-92" x="114.71" y="45.48" width="0.34" height="11.75"/><rect class="cls-93" x="115.05" y="45.48" width="0.34" height="11.75"/><rect class="cls-94" x="115.4" y="45.48" width="0.34" height="11.75"/><rect class="cls-95" x="115.74" y="45.48" width="0.34" height="11.75"/><rect class="cls-96" x="116.08" y="45.48" width="0.34" height="11.75"/><rect class="cls-97" x="116.42" y="45.48" width="0.34" height="11.75"/><rect class="cls-98" x="116.76" y="45.48" width="0.34" height="11.75"/><rect class="cls-97" x="117.11" y="45.48" width="0.34" height="11.75"/><rect class="cls-99" x="117.45" y="45.48" width="0.34" height="11.75"/><rect class="cls-100" x="117.79" y="45.48" width="0.34" height="11.75"/><rect class="cls-101" x="118.13" y="45.48" width="0.34" height="11.75"/><rect class="cls-102" x="118.47" y="45.48" width="0.34" height="11.75"/><rect class="cls-103" x="118.81" y="45.48" width="0.34" height="11.75"/><rect class="cls-103" x="119.16" y="45.48" width="0.34" height="11.75"/><rect class="cls-104" x="119.5" y="45.48" width="0.34" height="11.75"/><rect class="cls-105" x="119.84" y="45.48" width="0.34" height="11.75"/><rect class="cls-106" x="120.18" y="45.48" width="0.34" height="11.75"/><rect class="cls-107" x="120.52" y="45.48" width="0.34" height="11.75"/><rect class="cls-108" x="120.87" y="45.48" width="0.34" height="11.75"/><rect class="cls-109" x="121.21" y="45.48" width="0.34" height="11.75"/><rect class="cls-109" x="121.55" y="45.48" width="0.34" height="11.75"/><rect class="cls-110" x="121.89" y="45.48" width="0.34" height="11.75"/><rect class="cls-111" x="122.23" y="45.48" width="0.34" height="11.75"/><rect class="cls-112" x="122.58" y="45.48" width="0.34" height="11.75"/><rect class="cls-113" x="122.92" y="45.48" width="0.34" height="11.75"/><rect class="cls-114" x="123.26" y="45.48" width="0.34" height="11.75"/><rect class="cls-115" x="123.6" y="45.48" width="0.34" height="11.75"/><rect class="cls-115" x="123.94" y="45.48" width="0.34" height="11.75"/><rect class="cls-116" x="124.29" y="45.48" width="0.34" height="11.75"/><rect class="cls-117" x="124.63" y="45.48" width="0.34" height="11.75"/><rect class="cls-118" x="124.97" y="45.48" width="0.34" height="11.75"/><rect class="cls-118" x="125.31" y="45.48" width="0.05" height="11.75"/></g><g class="cls-121"><rect class="cls-122" x="124.23" y="37.45" width="3.07" height="0.01"/><rect class="cls-122" x="124.23" y="37.46" width="3.07" height="0.39"/><rect class="cls-123" x="124.23" y="37.85" width="3.07" height="0.39"/><rect class="cls-124" x="124.23" y="38.23" width="3.07" height="0.39"/><rect class="cls-125" x="124.23" y="38.62" width="3.07" height="0.39"/><rect class="cls-126" x="124.23" y="39" width="3.07" height="0.39"/><rect class="cls-126" x="124.23" y="39.39" width="3.07" height="0.39"/><rect class="cls-127" x="124.23" y="39.77" width="3.07" height="0.39"/><rect class="cls-128" x="124.23" y="40.16" width="3.07" height="0.39"/><rect class="cls-129" x="124.23" y="40.54" width="3.07" height="0.39"/><rect class="cls-130" x="124.23" y="40.93" width="3.07" height="0.39"/><rect class="cls-131" x="124.23" y="41.31" width="3.07" height="0.39"/><rect class="cls-132" x="124.23" y="41.7" width="3.07" height="0.39"/><rect class="cls-133" x="124.23" y="42.09" width="3.07" height="0.39"/><rect class="cls-134" x="124.23" y="42.47" width="3.07" height="0.39"/><rect class="cls-135" x="124.23" y="42.86" width="3.07" height="0.39"/><rect class="cls-136" x="124.23" y="43.24" width="3.07" height="0.39"/><rect class="cls-137" x="124.23" y="43.63" width="3.07" height="0.39"/><rect class="cls-138" x="124.23" y="44.01" width="3.07" height="0.39"/><rect class="cls-139" x="124.23" y="44.4" width="3.07" height="0.39"/><rect class="cls-140" x="124.23" y="44.78" width="3.07" height="0.39"/><rect class="cls-141" x="124.23" y="45.17" width="3.07" height="0.39"/><rect class="cls-142" x="124.23" y="45.55" width="3.07" height="0.39"/><rect class="cls-143" x="124.23" y="45.94" width="3.07" height="0.39"/><rect class="cls-144" x="124.23" y="46.32" width="3.07" height="0.39"/><rect class="cls-145" x="124.23" y="46.71" width="3.07" height="0.39"/><rect class="cls-146" x="124.23" y="47.09" width="3.07" height="0.39"/><rect class="cls-147" x="124.23" y="47.48" width="3.07" height="0.39"/><rect class="cls-148" x="124.23" y="47.86" width="3.07" height="0.39"/><rect class="cls-149" x="124.23" y="48.25" width="3.07" height="0.39"/><rect class="cls-150" x="124.23" y="48.63" width="3.07" height="0.39"/><rect class="cls-151" x="124.23" y="49.02" width="3.07" height="0.39"/><rect class="cls-152" x="124.23" y="49.41" width="3.07" height="0.39"/><rect class="cls-153" x="124.23" y="49.79" width="3.07" height="0.39"/><rect class="cls-154" x="124.23" y="50.18" width="3.07" height="0.39"/><rect class="cls-155" x="124.23" y="50.56" width="3.07" height="0.39"/><rect class="cls-156" x="124.23" y="50.95" width="3.07" height="0.39"/><rect class="cls-2" x="124.23" y="51.33" width="3.07" height="0.39"/><rect class="cls-157" x="124.23" y="51.72" width="3.07" height="0.39"/><rect class="cls-158" x="124.23" y="52.1" width="3.07" height="0.39"/><rect class="cls-159" x="124.23" y="52.49" width="3.07" height="0.39"/><rect class="cls-160" x="124.23" y="52.87" width="3.07" height="0.39"/><rect class="cls-161" x="124.23" y="53.26" width="3.07" height="0.39"/><rect class="cls-162" x="124.23" y="53.64" width="3.07" height="0.39"/><rect class="cls-163" x="124.23" y="54.03" width="3.07" height="0.39"/><rect class="cls-164" x="124.23" y="54.41" width="3.07" height="0.39"/><rect class="cls-165" x="124.23" y="54.8" width="3.07" height="0.39"/><rect class="cls-166" x="124.23" y="55.18" width="3.07" height="0.39"/><rect class="cls-167" x="124.23" y="55.57" width="3.07" height="0.39"/><rect class="cls-168" x="124.23" y="55.95" width="3.07" height="0.39"/><rect class="cls-169" x="124.23" y="56.34" width="3.07" height="0.39"/><rect class="cls-170" x="124.23" y="56.73" width="3.07" height="0.39"/></g><g class="cls-171"><rect class="cls-172" x="116.55" y="40.52" width="0.05" height="16.76"/><rect class="cls-172" x="116.59" y="40.52" width="0.23" height="16.76"/><rect class="cls-173" x="116.83" y="40.52" width="0.23" height="16.76"/><rect class="cls-174" x="117.06" y="40.52" width="0.23" height="16.76"/><rect class="cls-175" x="117.29" y="40.52" width="0.23" height="16.76"/><rect class="cls-176" x="117.52" y="40.52" width="0.23" height="16.76"/><rect class="cls-177" x="117.75" y="40.52" width="0.23" height="16.76"/><rect class="cls-177" x="117.99" y="40.52" width="0.23" height="16.76"/><rect class="cls-178" x="118.22" y="40.52" width="0.23" height="16.76"/><rect class="cls-179" x="118.45" y="40.52" width="0.23" height="16.76"/><rect class="cls-180" x="118.68" y="40.52" width="0.23" height="16.76"/><rect class="cls-181" x="118.91" y="40.52" width="0.23" height="16.76"/><rect class="cls-182" x="119.14" y="40.52" width="0.23" height="16.76"/><rect class="cls-183" x="119.38" y="40.52" width="0.23" height="16.76"/><rect class="cls-184" x="119.61" y="40.52" width="0.23" height="16.76"/><rect class="cls-185" x="119.84" y="40.52" width="0.23" height="16.76"/><rect class="cls-186" x="120.07" y="40.52" width="0.23" height="16.76"/><rect class="cls-187" x="120.3" y="40.52" width="0.23" height="16.76"/><rect class="cls-188" x="120.53" y="40.52" width="0.23" height="16.76"/><rect class="cls-189" x="120.77" y="40.52" width="0.23" height="16.76"/><rect class="cls-190" x="121" y="40.52" width="0.23" height="16.76"/><rect class="cls-191" x="121.23" y="40.52" width="0.23" height="16.76"/><rect class="cls-192" x="121.46" y="40.52" width="0.23" height="16.76"/><rect class="cls-193" x="121.69" y="40.52" width="0.23" height="16.76"/><rect class="cls-194" x="121.93" y="40.52" width="0.23" height="16.76"/><rect class="cls-195" x="122.16" y="40.52" width="0.23" height="16.76"/><rect class="cls-196" x="122.39" y="40.52" width="0.23" height="16.76"/><rect class="cls-197" x="122.62" y="40.52" width="0.23" height="16.76"/><rect class="cls-198" x="122.85" y="40.52" width="0.23" height="16.76"/><rect class="cls-199" x="123.08" y="40.52" width="0.23" height="16.76"/><rect class="cls-200" x="123.32" y="40.52" width="0.23" height="16.76"/><rect class="cls-200" x="123.55" y="40.52" width="0.23" height="16.76"/><rect class="cls-201" x="123.78" y="40.52" width="0.23" height="16.76"/><rect class="cls-202" x="124.01" y="40.52" width="0.23" height="16.76"/><rect class="cls-203" x="124.24" y="40.52" width="0.23" height="16.76"/><rect class="cls-204" x="124.47" y="40.52" width="0.23" height="16.76"/><rect class="cls-205" x="124.71" y="40.52" width="0.23" height="16.76"/><rect class="cls-206" x="124.94" y="40.52" width="0.23" height="16.76"/><rect class="cls-206" x="125.17" y="40.52" width="0.23" height="16.76"/><rect class="cls-206" x="125.4" y="40.52" width="0.01" height="16.76"/></g><g class="cls-207"><g class="cls-208"><g class="cls-209"><polygon class="cls-210" points="126.53 57.78 129.18 55.12 129.18 57.78 126.53 57.78"/><polygon class="cls-210" points="122.36 57.78 121.61 57.03 121.61 55.05 126 50.66 128.89 50.66 129.18 50.95 129.18 55.12 126.53 57.78 122.36 57.78"/><polygon class="cls-210" points="126 50.66 121.61 55.05 121.61 50.66 126 50.66"/></g></g></g></g><g class="cls-211"><polygon class="cls-212" points="117.29 7.67 110.32 17.59 110.32 7.67 117.29 7.67"/><polygon class="cls-212" points="117.84 7.67 110.32 18.38 110.32 17.59 117.29 7.67 117.84 7.67"/><polygon class="cls-213" points="118.4 7.67 110.32 19.17 110.32 18.38 117.84 7.67 118.4 7.67"/><polygon class="cls-214" points="118.96 7.67 110.32 19.96 110.32 19.17 118.4 7.67 118.96 7.67"/><polygon class="cls-214" points="119.51 7.67 110.32 20.75 110.32 19.96 118.96 7.67 119.51 7.67"/><polygon class="cls-215" points="120.07 7.67 110.32 21.55 110.32 20.75 119.51 7.67 120.07 7.67"/><polygon class="cls-216" points="120.63 7.67 110.32 22.34 110.32 21.55 120.07 7.67 120.63 7.67"/><polygon class="cls-217" points="121.18 7.67 110.32 23.13 110.32 22.34 120.63 7.67 121.18 7.67"/><polygon class="cls-218" points="121.74 7.67 110.32 23.92 110.32 23.13 121.18 7.67 121.74 7.67"/><polygon class="cls-219" points="122.29 7.67 110.32 24.71 110.32 23.92 121.74 7.67 122.29 7.67"/><polygon class="cls-220" points="122.85 7.67 110.32 25.5 110.32 24.71 122.29 7.67 122.85 7.67"/><polygon class="cls-221" points="123.41 7.67 110.32 26.3 110.32 25.5 122.85 7.67 123.41 7.67"/><polygon class="cls-222" points="123.96 7.67 110.32 27.09 110.32 26.3 123.41 7.67 123.96 7.67"/><polygon class="cls-223" points="124.52 7.67 110.32 27.88 110.32 27.09 123.96 7.67 124.52 7.67"/><polygon class="cls-224" points="125.08 7.67 110.32 28.67 110.32 27.88 124.52 7.67 125.08 7.67"/><polygon class="cls-225" points="125.63 7.67 110.32 29.46 110.32 28.67 125.08 7.67 125.63 7.67"/><polygon class="cls-226" points="126.19 7.67 110.32 30.25 110.32 29.46 125.63 7.67 126.19 7.67"/><polygon class="cls-227" points="126.75 7.67 110.69 30.52 110.32 30.27 110.32 30.25 126.19 7.67 126.75 7.67"/><polygon class="cls-228" points="127.3 7.67 111.06 30.79 110.69 30.52 126.75 7.67 127.3 7.67"/><polygon class="cls-229" points="127.86 7.67 111.43 31.05 111.06 30.79 127.3 7.67 127.86 7.67"/><polygon class="cls-230" points="128.41 7.67 111.8 31.31 111.43 31.05 127.86 7.67 128.41 7.67"/><polygon class="cls-231" points="128.97 7.67 112.18 31.57 111.8 31.31 128.41 7.67 128.97 7.67"/><polygon class="cls-232" points="129.52 7.67 129.53 7.67 112.55 31.83 112.18 31.57 128.97 7.67 129.52 7.67"/><rect class="cls-233" x="106.46" y="19.66" width="29.53" height="0.46" transform="translate(35.26 107.63) rotate(-54.9)"/><rect class="cls-234" x="106.83" y="19.92" width="29.53" height="0.46" transform="translate(35.2 108.05) rotate(-54.9)"/><rect class="cls-235" x="107.2" y="20.18" width="29.53" height="0.46" transform="translate(35.14 108.47) rotate(-54.9)"/><rect class="cls-236" x="107.58" y="20.44" width="29.53" height="0.46" transform="translate(35.09 108.88) rotate(-54.9)"/><rect class="cls-237" x="107.95" y="20.7" width="29.53" height="0.46" transform="translate(35.03 109.3) rotate(-54.9)"/><rect class="cls-238" x="108.32" y="20.97" width="29.53" height="0.46" transform="translate(34.98 109.71) rotate(-54.9)"/><rect class="cls-239" x="108.69" y="21.23" width="29.53" height="0.46" transform="translate(34.92 110.13) rotate(-54.9)"/><rect class="cls-240" x="109.07" y="21.49" width="29.53" height="0.46" transform="translate(34.86 110.55) rotate(-54.9)"/><rect class="cls-241" x="109.44" y="21.75" width="29.53" height="0.46" transform="translate(34.81 110.96) rotate(-54.9)"/><rect class="cls-242" x="109.81" y="22.01" width="29.53" height="0.46" transform="translate(34.75 111.38) rotate(-54.9)"/><rect class="cls-243" x="110.18" y="22.27" width="29.53" height="0.46" transform="translate(34.7 111.79) rotate(-54.9)"/><rect class="cls-244" x="110.56" y="22.54" width="29.53" height="0.46" transform="matrix(0.57, -0.82, 0.82, 0.57, 34.64, 112.21)"/><rect class="cls-245" x="110.93" y="22.8" width="29.53" height="0.46" transform="translate(34.59 112.63) rotate(-54.9)"/><rect class="cls-246" x="111.3" y="23.06" width="29.53" height="0.46" transform="translate(34.53 113.04) rotate(-54.9)"/><rect class="cls-247" x="111.67" y="23.32" width="29.53" height="0.46" transform="translate(34.47 113.46) rotate(-54.9)"/><rect class="cls-248" x="112.05" y="23.58" width="29.53" height="0.46" transform="translate(34.42 113.87) rotate(-54.9)"/><rect class="cls-249" x="112.42" y="23.84" width="29.53" height="0.46" transform="translate(34.36 114.29) rotate(-54.9)"/><polygon class="cls-250" points="135.86 12.12 136.03 12.24 136.03 12.67 119.25 36.55 118.88 36.28 135.86 12.12"/><polygon class="cls-251" points="136.03 13.46 119.63 36.81 119.25 36.55 136.03 12.67 136.03 13.46"/><polygon class="cls-252" points="136.03 14.25 120 37.07 119.63 36.81 136.03 13.46 136.03 14.25"/><polygon class="cls-253" points="136.03 15.05 120.37 37.33 120 37.07 136.03 14.25 136.03 15.05"/><polygon class="cls-254" points="136.03 15.84 120.74 37.59 120.37 37.33 136.03 15.05 136.03 15.84"/><polygon class="cls-255" points="136.03 16.63 121.11 37.85 120.74 37.59 136.03 15.84 136.03 16.63"/><polygon class="cls-256" points="136.03 17.42 121.49 38.12 121.11 37.85 136.03 16.63 136.03 17.42"/><polygon class="cls-257" points="136.03 18.21 121.86 38.38 121.49 38.12 136.03 17.42 136.03 18.21"/><polygon class="cls-258" points="136.03 19 122.23 38.64 121.86 38.38 136.03 18.21 136.03 19"/><polygon class="cls-259" points="136.03 19.8 122.6 38.9 122.23 38.64 136.03 19 136.03 19.8"/><polygon class="cls-260" points="136.03 20.59 122.98 39.16 122.6 38.9 136.03 19.8 136.03 20.59"/><polygon class="cls-261" points="136.03 21.38 123.41 39.34 123.23 39.34 122.98 39.16 136.03 20.59 136.03 21.38"/><polygon class="cls-262" points="136.03 22.17 123.96 39.34 123.41 39.34 136.03 21.38 136.03 22.17"/><polygon class="cls-263" points="136.03 22.96 124.52 39.34 123.96 39.34 136.03 22.17 136.03 22.96"/><polygon class="cls-264" points="136.03 23.75 125.08 39.34 124.52 39.34 136.03 22.96 136.03 23.75"/><polygon class="cls-265" points="136.03 24.55 125.63 39.34 125.08 39.34 136.03 23.75 136.03 24.55"/><polygon class="cls-266" points="136.03 25.34 126.19 39.34 125.63 39.34 136.03 24.55 136.03 25.34"/><polygon class="cls-267" points="136.03 26.13 126.75 39.34 126.19 39.34 136.03 25.34 136.03 26.13"/><polygon class="cls-268" points="136.03 26.92 127.3 39.34 126.75 39.34 136.03 26.13 136.03 26.92"/><polygon class="cls-269" points="136.03 27.71 127.86 39.34 127.3 39.34 136.03 26.92 136.03 27.71"/><polygon class="cls-269" points="127.86 39.34 136.03 27.71 136.03 39.34 127.86 39.34"/></g><g class="cls-270"><g class="cls-271"><polygon class="cls-98" points="90.24 45.04 89.83 45.64 89.83 45.04 90.24 45.04"/><polygon class="cls-97" points="90.84 45.66 89.83 47.11 89.83 45.64 90.24 45.04 90.84 45.04 90.84 45.66"/><polygon class="cls-99" points="90.84 47.13 90.09 48.21 89.83 48.21 89.83 47.11 90.84 45.66 90.84 47.13"/><polygon class="cls-100" points="90.09 48.21 90.84 47.13 90.84 48.21 90.09 48.21"/><polygon class="cls-83" points="91.65 15.07 83.86 26.16 83.86 15.07 91.65 15.07"/><polygon class="cls-83" points="92.69 15.07 83.86 27.64 83.86 26.16 91.65 15.07 92.69 15.07"/><polygon class="cls-84" points="93.72 15.07 83.86 29.11 83.86 27.64 92.69 15.07 93.72 15.07"/><polygon class="cls-85" points="94.76 15.07 83.86 30.58 83.86 29.11 93.72 15.07 94.76 15.07"/><polygon class="cls-85" points="95.79 15.07 83.86 32.05 83.86 30.58 94.76 15.07 95.79 15.07"/><polygon class="cls-85" points="96.83 15.07 83.86 33.52 83.86 32.05 95.79 15.07 96.83 15.07"/><polygon class="cls-86" points="97.86 15.07 83.86 34.99 83.86 33.52 96.83 15.07 97.86 15.07"/><polygon class="cls-87" points="98.89 15.07 83.86 36.47 83.86 34.99 97.86 15.07 98.89 15.07"/><polygon class="cls-88" points="99.93 15.07 83.86 37.94 83.86 36.47 98.89 15.07 99.93 15.07"/><polygon class="cls-89" points="100.96 15.07 83.86 39.41 83.86 37.94 99.93 15.07 100.96 15.07"/><polygon class="cls-90" points="102 15.07 83.86 40.88 83.86 39.41 100.96 15.07 102 15.07"/><polygon class="cls-91" points="102.64 15.07 102.9 15.25 83.86 42.35 83.86 40.88 102 15.07 102.64 15.07"/><polygon class="cls-91" points="102.9 15.25 103.6 15.74 83.86 43.83 83.86 42.35 102.9 15.25"/><polygon class="cls-92" points="103.6 15.74 104.29 16.22 83.86 45.3 83.86 43.83 103.6 15.74"/><polygon class="cls-93" points="104.29 16.22 104.98 16.71 83.86 46.77 83.86 45.3 104.29 16.22"/><polygon class="cls-94" points="104.98 16.71 105.67 17.2 84.04 47.98 83.86 47.85 83.86 46.77 104.98 16.71"/><rect class="cls-95" x="76.39" y="32.41" width="37.62" height="0.85" transform="translate(13.6 91.85) rotate(-54.9)"/><rect class="cls-96" x="77.08" y="32.9" width="37.62" height="0.85" transform="translate(13.5 92.62) rotate(-54.9)"/><rect class="cls-97" x="77.78" y="33.38" width="37.62" height="0.85" transform="translate(13.39 93.4) rotate(-54.9)"/><rect class="cls-98" x="78.47" y="33.87" width="37.62" height="0.85" transform="matrix(0.57, -0.82, 0.82, 0.57, 13.29, 94.17)"/><rect class="cls-97" x="79.16" y="34.36" width="37.62" height="0.85" transform="translate(13.19 94.94) rotate(-54.9)"/><rect class="cls-99" x="79.85" y="34.84" width="37.62" height="0.85" transform="matrix(0.57, -0.82, 0.82, 0.57, 13.08, 95.72)"/><rect class="cls-100" x="80.55" y="35.33" width="37.62" height="0.85" transform="matrix(0.57, -0.82, 0.82, 0.57, 12.98, 96.49)"/><rect class="cls-101" x="81.24" y="35.82" width="37.62" height="0.85" transform="translate(12.88 97.26) rotate(-54.9)"/><rect class="cls-102" x="81.93" y="36.3" width="37.62" height="0.85" transform="translate(12.77 98.04) rotate(-54.9)"/><rect class="cls-103" x="82.62" y="36.79" width="37.62" height="0.85" transform="translate(12.67 98.81) rotate(-54.9)"/><polygon class="cls-103" points="112.6 22.06 113.29 22.55 91.82 53.1 91.33 53.1 90.97 52.85 112.6 22.06"/><polygon class="cls-104" points="113.29 22.55 113.98 23.04 92.85 53.1 91.82 53.1 113.29 22.55"/><polygon class="cls-105" points="113.98 23.04 114.67 23.52 93.89 53.1 92.85 53.1 113.98 23.04"/><polygon class="cls-106" points="114.67 23.52 115.37 24.01 94.92 53.1 93.89 53.1 114.67 23.52"/><polygon class="cls-107" points="115.37 24.01 116.06 24.5 95.96 53.1 94.92 53.1 115.37 24.01"/><polygon class="cls-108" points="116.06 24.5 116.75 24.98 96.99 53.1 95.96 53.1 116.06 24.5"/><polygon class="cls-109" points="116.75 24.98 117.44 25.47 98.03 53.1 96.99 53.1 116.75 24.98"/><polygon class="cls-109" points="117.44 25.47 118.14 25.96 99.06 53.1 98.03 53.1 117.44 25.47"/><polygon class="cls-110" points="118.14 25.96 118.17 25.98 118.17 27.39 100.09 53.1 99.06 53.1 118.14 25.96"/><polygon class="cls-111" points="118.17 28.86 101.13 53.1 100.09 53.1 118.17 27.39 118.17 28.86"/><polygon class="cls-112" points="118.17 30.33 102.16 53.1 101.13 53.1 118.17 28.86 118.17 30.33"/><polygon class="cls-113" points="118.17 31.8 103.2 53.1 102.16 53.1 118.17 30.33 118.17 31.8"/><polygon class="cls-114" points="118.17 33.27 104.23 53.1 103.2 53.1 118.17 31.8 118.17 33.27"/><polygon class="cls-115" points="118.17 34.74 105.27 53.1 104.23 53.1 118.17 33.27 118.17 34.74"/><polygon class="cls-115" points="118.17 36.22 106.3 53.1 105.27 53.1 118.17 34.74 118.17 36.22"/><polygon class="cls-116" points="118.17 37.69 107.33 53.1 106.3 53.1 118.17 36.22 118.17 37.69"/><polygon class="cls-117" points="118.17 39.16 108.37 53.1 107.33 53.1 118.17 37.69 118.17 39.16"/><polygon class="cls-118" points="118.17 40.63 109.4 53.1 108.37 53.1 118.17 39.16 118.17 40.63"/><polygon class="cls-118" points="109.4 53.1 118.17 40.63 118.17 53.1 109.4 53.1"/></g></g><g class="cls-272"><g class="cls-273"><polygon class="cls-180" points="97.53 33.48 96.92 34.35 96.92 33.48 97.53 33.48"/><polygon class="cls-181" points="98.18 34.19 96.92 35.97 96.92 34.35 97.53 33.48 98.18 33.48 98.18 34.19"/><polygon class="cls-182" points="98.18 35.81 97.59 36.65 96.92 36.65 96.92 35.97 98.18 34.19 98.18 35.81"/><polygon class="cls-183" points="97.59 36.65 98.18 35.81 98.18 36.65 97.59 36.65"/><polygon class="cls-172" points="103.93 8.14 94.37 21.74 94.37 8.14 103.93 8.14"/><polygon class="cls-172" points="105.07 8.14 94.37 23.37 94.37 21.74 103.93 8.14 105.07 8.14"/><polygon class="cls-173" points="106.21 8.14 94.37 24.99 94.37 23.37 105.07 8.14 106.21 8.14"/><polygon class="cls-174" points="107.35 8.14 94.37 26.61 94.37 24.99 106.21 8.14 107.35 8.14"/><polygon class="cls-175" points="108.49 8.14 94.37 28.24 94.37 26.61 107.35 8.14 108.49 8.14"/><polygon class="cls-176" points="109.63 8.14 94.37 29.86 94.37 28.24 108.49 8.14 109.63 8.14"/><polygon class="cls-177" points="110.77 8.14 94.37 31.48 94.37 29.86 109.63 8.14 110.77 8.14"/><polygon class="cls-177" points="111.92 8.14 94.37 33.11 94.37 31.48 110.77 8.14 111.92 8.14"/><polygon class="cls-178" points="113.06 8.14 94.37 34.73 94.37 33.11 111.92 8.14 113.06 8.14"/><polygon class="cls-179" points="114.2 8.14 94.37 36.36 94.37 34.73 113.06 8.14 114.2 8.14"/><polygon class="cls-180" points="115.34 8.14 94.37 37.98 94.37 36.36 114.2 8.14 115.34 8.14"/><polygon class="cls-181" points="116.48 8.14 94.37 39.6 94.37 37.98 115.34 8.14 116.48 8.14"/><polygon class="cls-182" points="116.95 8.14 117.4 8.46 94.93 40.43 94.37 40.04 94.37 39.6 116.48 8.14 116.95 8.14"/><rect class="cls-183" x="87" y="24.25" width="39.09" height="0.93" transform="translate(25.07 97.68) rotate(-54.9)"/><rect class="cls-184" x="87.77" y="24.78" width="39.09" height="0.93" transform="translate(24.95 98.53) rotate(-54.9)"/><rect class="cls-185" x="88.53" y="25.32" width="39.09" height="0.93" transform="translate(24.84 99.38) rotate(-54.9)"/><rect class="cls-186" x="89.29" y="25.86" width="39.09" height="0.93" transform="translate(24.72 100.24) rotate(-54.9)"/><rect class="cls-187" x="90.06" y="26.39" width="39.09" height="0.93" transform="translate(24.61 101.09) rotate(-54.9)"/><rect class="cls-188" x="90.82" y="26.93" width="39.09" height="0.93" transform="translate(24.49 101.94) rotate(-54.9)"/><rect class="cls-189" x="91.59" y="27.47" width="39.09" height="0.93" transform="translate(24.38 102.8) rotate(-54.9)"/><rect class="cls-190" x="92.35" y="28" width="39.09" height="0.93" transform="translate(24.27 103.65) rotate(-54.9)"/><polygon class="cls-191" points="123.51 12.75 124.28 13.29 101.83 45.22 101.74 45.22 101.04 44.73 123.51 12.75"/><polygon class="cls-192" points="124.28 13.29 125.04 13.82 102.98 45.22 101.83 45.22 124.28 13.29"/><polygon class="cls-193" points="125.04 13.82 125.8 14.36 104.12 45.22 102.98 45.22 125.04 13.82"/><polygon class="cls-194" points="125.8 14.36 126.57 14.9 105.26 45.22 104.12 45.22 125.8 14.36"/><polygon class="cls-195" points="126.57 14.9 127.33 15.43 106.4 45.22 105.26 45.22 126.57 14.9"/><polygon class="cls-196" points="127.33 15.43 128.09 15.97 107.54 45.22 106.4 45.22 127.33 15.43"/><polygon class="cls-197" points="128.09 15.97 128.86 16.51 108.68 45.22 107.54 45.22 128.09 15.97"/><polygon class="cls-198" points="128.86 16.51 129.59 17.02 129.59 17.08 109.82 45.22 108.68 45.22 128.86 16.51"/><polygon class="cls-199" points="129.59 18.71 110.96 45.22 109.82 45.22 129.59 17.08 129.59 18.71"/><polygon class="cls-200" points="129.59 20.33 112.1 45.22 110.96 45.22 129.59 18.71 129.59 20.33"/><polygon class="cls-200" points="129.59 21.95 113.25 45.22 112.1 45.22 129.59 20.33 129.59 21.95"/><polygon class="cls-201" points="129.59 23.58 114.39 45.22 113.25 45.22 129.59 21.95 129.59 23.58"/><polygon class="cls-202" points="129.59 25.2 115.53 45.22 114.39 45.22 129.59 23.58 129.59 25.2"/><polygon class="cls-203" points="129.59 26.82 116.67 45.22 115.53 45.22 129.59 25.2 129.59 26.82"/><polygon class="cls-204" points="129.59 28.45 117.81 45.22 116.67 45.22 129.59 26.82 129.59 28.45"/><polygon class="cls-205" points="129.59 30.07 118.95 45.22 117.81 45.22 129.59 28.45 129.59 30.07"/><polygon class="cls-206" points="129.59 31.7 120.09 45.22 118.95 45.22 129.59 30.07 129.59 31.7"/><polygon class="cls-206" points="129.59 33.32 121.23 45.22 120.09 45.22 129.59 31.7 129.59 33.32"/><polygon class="cls-206" points="121.23 45.22 129.59 33.32 129.59 45.22 121.23 45.22"/></g></g><path class="cls-2" d="M133.44,12.53a12.06,12.06,0,0,0-10.3-4.64A11.37,11.37,0,0,0,122,8a12.24,12.24,0,0,0-9.18,6.2c-2.48,4.64-1.21,10.17,1.33,14.5,1.89,3.21,4.67,6.07,8.37,7a10.49,10.49,0,0,0,2,.29l-.08.24L123.84,38a1,1,0,0,0,.92,1.32,2.27,2.27,0,0,0,.84-.25l.38-.17s.33-.24.36-.22a3.37,3.37,0,0,0,1.32.25,1,1,0,0,0,.8-1.57l-1-1.53-.14-.21c4.1-1.27,6.67-5.43,7.85-9.4A19.31,19.31,0,0,0,136,20,13,13,0,0,0,133.44,12.53Z"/><g class="cls-274"><polygon class="cls-2" points="117.29 7.67 110.32 17.59 110.32 7.67 117.29 7.67"/><polygon class="cls-2" points="117.84 7.67 110.32 18.38 110.32 17.59 117.29 7.67 117.84 7.67"/><polygon class="cls-2" points="118.4 7.67 110.32 19.17 110.32 18.38 117.84 7.67 118.4 7.67"/><polygon class="cls-2" points="118.96 7.67 110.32 19.96 110.32 19.17 118.4 7.67 118.96 7.67"/><polygon class="cls-2" points="119.51 7.67 110.32 20.75 110.32 19.96 118.96 7.67 119.51 7.67"/><polygon class="cls-2" points="120.07 7.67 110.32 21.55 110.32 20.75 119.51 7.67 120.07 7.67"/><polygon class="cls-2" points="120.63 7.67 110.32 22.34 110.32 21.55 120.07 7.67 120.63 7.67"/><polygon class="cls-2" points="121.18 7.67 110.32 23.13 110.32 22.34 120.63 7.67 121.18 7.67"/><polygon class="cls-2" points="121.74 7.67 110.32 23.92 110.32 23.13 121.18 7.67 121.74 7.67"/><polygon class="cls-2" points="122.29 7.67 110.32 24.71 110.32 23.92 121.74 7.67 122.29 7.67"/><polygon class="cls-2" points="122.85 7.67 110.32 25.5 110.32 24.71 122.29 7.67 122.85 7.67"/><polygon class="cls-2" points="123.41 7.67 110.32 26.3 110.32 25.5 122.85 7.67 123.41 7.67"/><polygon class="cls-2" points="123.96 7.67 110.32 27.09 110.32 26.3 123.41 7.67 123.96 7.67"/><polygon class="cls-2" points="124.52 7.67 110.32 27.88 110.32 27.09 123.96 7.67 124.52 7.67"/><polygon class="cls-2" points="125.08 7.67 110.32 28.67 110.32 27.88 124.52 7.67 125.08 7.67"/><polygon class="cls-2" points="125.63 7.67 110.32 29.46 110.32 28.67 125.08 7.67 125.63 7.67"/><polygon class="cls-2" points="126.19 7.67 110.32 30.25 110.32 29.46 125.63 7.67 126.19 7.67"/><polygon class="cls-2" points="126.75 7.67 110.69 30.52 110.32 30.27 110.32 30.25 126.19 7.67 126.75 7.67"/><polygon class="cls-2" points="127.3 7.67 111.06 30.79 110.69 30.52 126.75 7.67 127.3 7.67"/><polygon class="cls-2" points="127.86 7.67 111.43 31.05 111.06 30.79 127.3 7.67 127.86 7.67"/><polygon class="cls-2" points="128.41 7.67 111.8 31.31 111.43 31.05 127.86 7.67 128.41 7.67"/><polygon class="cls-2" points="128.97 7.67 112.18 31.57 111.8 31.31 128.41 7.67 128.97 7.67"/><polygon class="cls-2" points="129.52 7.67 129.53 7.67 112.55 31.83 112.18 31.57 128.97 7.67 129.52 7.67"/><rect class="cls-2" x="106.46" y="19.66" width="29.53" height="0.46" transform="translate(35.26 107.63) rotate(-54.9)"/><rect class="cls-2" x="106.83" y="19.92" width="29.53" height="0.46" transform="translate(35.2 108.05) rotate(-54.9)"/><rect class="cls-2" x="107.2" y="20.18" width="29.53" height="0.46" transform="translate(35.14 108.47) rotate(-54.9)"/><rect class="cls-2" x="107.58" y="20.44" width="29.53" height="0.46" transform="translate(35.09 108.88) rotate(-54.9)"/><rect class="cls-2" x="107.95" y="20.7" width="29.53" height="0.46" transform="translate(35.03 109.3) rotate(-54.9)"/><rect class="cls-2" x="108.32" y="20.97" width="29.53" height="0.46" transform="translate(34.98 109.71) rotate(-54.9)"/><rect class="cls-2" x="108.69" y="21.23" width="29.53" height="0.46" transform="translate(34.92 110.13) rotate(-54.9)"/><rect class="cls-2" x="109.07" y="21.49" width="29.53" height="0.46" transform="translate(34.86 110.55) rotate(-54.9)"/><rect class="cls-2" x="109.44" y="21.75" width="29.53" height="0.46" transform="translate(34.81 110.96) rotate(-54.9)"/><rect class="cls-2" x="109.81" y="22.01" width="29.53" height="0.46" transform="translate(34.75 111.38) rotate(-54.9)"/><rect class="cls-2" x="110.18" y="22.27" width="29.53" height="0.46" transform="translate(34.7 111.79) rotate(-54.9)"/><rect class="cls-2" x="110.56" y="22.54" width="29.53" height="0.46" transform="matrix(0.57, -0.82, 0.82, 0.57, 34.64, 112.21)"/><rect class="cls-2" x="110.93" y="22.8" width="29.53" height="0.46" transform="translate(34.59 112.63) rotate(-54.9)"/><rect class="cls-2" x="111.3" y="23.06" width="29.53" height="0.46" transform="translate(34.53 113.04) rotate(-54.9)"/><rect class="cls-2" x="111.67" y="23.32" width="29.53" height="0.46" transform="translate(34.47 113.46) rotate(-54.9)"/><rect class="cls-2" x="112.05" y="23.58" width="29.53" height="0.46" transform="translate(34.42 113.87) rotate(-54.9)"/><rect class="cls-2" x="112.42" y="23.84" width="29.53" height="0.46" transform="translate(34.36 114.29) rotate(-54.9)"/><polygon class="cls-2" points="135.86 12.12 136.03 12.24 136.03 12.67 119.25 36.55 118.88 36.28 135.86 12.12"/><polygon class="cls-2" points="136.03 13.46 119.63 36.81 119.25 36.55 136.03 12.67 136.03 13.46"/><polygon class="cls-2" points="136.03 14.25 120 37.07 119.63 36.81 136.03 13.46 136.03 14.25"/><polygon class="cls-2" points="136.03 15.05 120.37 37.33 120 37.07 136.03 14.25 136.03 15.05"/><polygon class="cls-2" points="136.03 15.84 120.74 37.59 120.37 37.33 136.03 15.05 136.03 15.84"/><polygon class="cls-2" points="136.03 16.63 121.11 37.85 120.74 37.59 136.03 15.84 136.03 16.63"/><polygon class="cls-2" points="136.03 17.42 121.49 38.12 121.11 37.85 136.03 16.63 136.03 17.42"/><polygon class="cls-2" points="136.03 18.21 121.86 38.38 121.49 38.12 136.03 17.42 136.03 18.21"/><polygon class="cls-2" points="136.03 19 122.23 38.64 121.86 38.38 136.03 18.21 136.03 19"/><polygon class="cls-2" points="136.03 19.8 122.6 38.9 122.23 38.64 136.03 19 136.03 19.8"/><polygon class="cls-2" points="136.03 20.59 122.98 39.16 122.6 38.9 136.03 19.8 136.03 20.59"/><polygon class="cls-2" points="136.03 21.38 123.41 39.34 123.23 39.34 122.98 39.16 136.03 20.59 136.03 21.38"/><polygon class="cls-2" points="136.03 22.17 123.96 39.34 123.41 39.34 136.03 21.38 136.03 22.17"/><polygon class="cls-2" points="136.03 22.96 124.52 39.34 123.96 39.34 136.03 22.17 136.03 22.96"/><polygon class="cls-2" points="136.03 23.75 125.08 39.34 124.52 39.34 136.03 22.96 136.03 23.75"/><polygon class="cls-2" points="136.03 24.55 125.63 39.34 125.08 39.34 136.03 23.75 136.03 24.55"/><polygon class="cls-2" points="136.03 25.34 126.19 39.34 125.63 39.34 136.03 24.55 136.03 25.34"/><polygon class="cls-2" points="136.03 26.13 126.75 39.34 126.19 39.34 136.03 25.34 136.03 26.13"/><polygon class="cls-2" points="136.03 26.92 127.3 39.34 126.75 39.34 136.03 26.13 136.03 26.92"/><polygon class="cls-2" points="136.03 27.71 127.86 39.34 127.3 39.34 136.03 26.92 136.03 27.71"/><polygon class="cls-2" points="127.86 39.34 136.03 27.71 136.03 39.34 127.86 39.34"/></g></svg>