<svg id="Camada_1" data-name="Camada 1" xmlns="http://www.w3.org/2000/svg" xmlns:xlink="http://www.w3.org/1999/xlink" viewBox="0 0 133.43 113.52"><defs><style>.cls-1{fill:none;}.cls-2{clip-path:url(#clip-path);}.cls-3{fill:#5b95d0;}.cls-4{fill:#de392d;}.cls-5{fill:#eaeae4;}.cls-6,.cls-9{fill:#f8ac30;}.cls-7{fill:#dd8d18;}.cls-8,.cls-9{isolation:isolate;}.cls-9{font-size:27px;font-family:NexaBold, Nexa Bold;}</style><clipPath id="clip-path"><rect class="cls-1" x="34.25" y="14.92" width="64.93" height="81.02"/></clipPath></defs><title>Icones_Maratona</title><g class="cls-2"><g id="Componente_12_1" data-name="Componente 12 1"><g id="gold-medal-3-2"><path id="Caminho_6609" data-name="Caminho 6609" class="cls-3" d="M74.8,14.92H99.18L78.91,40.79H54.52Z"/><path id="Caminho_6610" data-name="Caminho 6610" class="cls-4" d="M74.8,14.92H85.1L64.83,40.79H54.52Z"/><path id="Caminho_6611" data-name="Caminho 6611" class="cls-5" d="M82.68,14.92H91.3L71,40.79H62.41Z"/><g id="Grupo_2085" data-name="Grupo 2085"><circle id="Elipse_146" data-name="Elipse 146" class="cls-6" cx="66.72" cy="70.68" r="25.26"/><path id="Caminho_6612" data-name="Caminho 6612" class="cls-6" d="M54.52,48.56V40.79H78.91v7.77L83,51.41V38.73A2.06,2.06,0,0,0,81,36.66H52.46a2.06,2.06,0,0,0-2.07,2.07h0V51.41Z"/></g><circle id="Elipse_147" data-name="Elipse 147" class="cls-7" cx="66.72" cy="70.68" r="18.91"/><path id="Caminho_6613" data-name="Caminho 6613" class="cls-4" d="M58.64,14.92H34.25L54.52,40.79H78.91Z"/><path id="Caminho_6614" data-name="Caminho 6614" class="cls-3" d="M58.64,14.92H48.33L68.6,40.79H78.91Z"/><path id="Caminho_6615" data-name="Caminho 6615" class="cls-5" d="M50.75,14.92H42.13L62.41,40.79H71Z"/></g><g id="_2" data-name=" 2" class="cls-8"><text class="cls-9" transform="translate(57.79 79.24)">2</text></g></g></g></svg>