<?xml version="1.0" encoding="utf-8"?>
<!-- Generator: Adobe Illustrator 23.0.0, SVG Export Plug-In . SVG Version: 6.00 Build 0)  -->
<svg version="1.1" id="Camada_1" xmlns="http://www.w3.org/2000/svg" xmlns:xlink="http://www.w3.org/1999/xlink" x="0px" y="0px"
	 viewBox="0 0 133.4 113.5" style="enable-background:new 0 0 133.4 113.5;" xml:space="preserve">
<style type="text/css">
	.st0{clip-path:url(#SVGID_2_);}
	.st1{fill:#5B95D0;}
	.st2{fill:#DE392D;}
	.st3{fill:#FFD54F;}
	.st4{fill:#FFFFFF;}
	.st5{clip-path:url(#SVGID_4_);}
	.st6{fill:#D8B557;}
</style>
<title>Icones_Maratona</title>
<g>
	<defs>
		<rect id="SVGID_1_" x="41.1" y="26.4" width="50.5" height="73.4"/>
	</defs>
	<clipPath id="SVGID_2_">
		<use xlink:href="#SVGID_1_"  style="overflow:visible;"/>
	</clipPath>
	<g class="st0">
		<g id="gold-medal">
			<path id="Caminho_6602" class="st1" d="M48,26.4h36.7v34.4H48V26.4z"/>
			<path id="Caminho_6603" class="st2" d="M57.2,26.4h18.4v34.4H57.2V26.4z"/>
			<path id="Caminho_6604" class="st3" d="M91.6,74.6c0,13.9-11.3,25.2-25.2,25.2S41.1,88.5,41.1,74.6s11.3-25.2,25.2-25.2
				c0,0,0,0,0,0l0,0C80.3,49.4,91.6,60.7,91.6,74.6C91.6,74.6,91.6,74.6,91.6,74.6z"/>
			<path id="Caminho_6605" class="st4" d="M74.9,87.7l-8.5-4.5l-8.5,4.5l1.6-9.5l-6.9-6.7l9.5-1.4l4.3-8.6l4.3,8.6l9.5,1.4l-6.9,6.7
				L74.9,87.7z"/>
		</g>
	</g>
</g>
<title>Icones_Maratona</title>
<g>
	<defs>
		<rect id="SVGID_3_" x="41.2" y="26.4" width="50.5" height="73.4"/>
	</defs>
	<clipPath id="SVGID_4_">
		<use xlink:href="#SVGID_3_"  style="overflow:visible;"/>
	</clipPath>
	<g class="st5">
		<g id="gold-medal-3">
			<path id="Caminho_6602-3" class="st1" d="M48,26.4h36.8v34.4H48V26.4z"/>
			<path id="Caminho_6603-3" class="st2" d="M57.2,26.4h18.3v34.4H57.2V26.4z"/>
			<path id="Caminho_6604-3" class="st6" d="M91.6,74.6c0,13.9-11.3,25.2-25.2,25.3c-13.9,0-25.2-11.3-25.2-25.2
				c0-13.9,11.3-25.2,25.2-25.2c0,0,0,0,0,0l0,0C80.3,49.4,91.6,60.7,91.6,74.6z"/>
			<path id="Caminho_6605-3" class="st4" d="M74.9,87.7l-8.5-4.5l-8.5,4.5l1.6-9.5l-6.9-6.7l9.5-1.4l4.3-8.6l4.3,8.6l9.5,1.4
				l-6.9,6.7L74.9,87.7z"/>
		</g>
	</g>
</g>
</svg>
