<svg id="Camada_1" data-name="Camada 1" xmlns="http://www.w3.org/2000/svg" xmlns:xlink="http://www.w3.org/1999/xlink" viewBox="0 0 133.43 113.52"><defs><style>.cls-1{fill:none;}.cls-2{clip-path:url(#clip-path);}.cls-3{fill:#5b95d0;}.cls-4{fill:#de392d;}.cls-5{fill:#eaeae4;}.cls-6,.cls-9{fill:#f8ac30;}.cls-7{fill:#dd8d18;}.cls-8,.cls-9{isolation:isolate;}.cls-9{font-size:27px;font-family:NexaBold, Nexa Bold;}</style><clipPath id="clip-path"><rect class="cls-1" x="34.25" y="16.83" width="64.93" height="81.02"/></clipPath></defs><title>Icones_Maratona</title><g class="cls-2"><g id="Componente_11_1" data-name="Componente 11 1"><g id="gold-medal-3-3"><path id="Caminho_6609-2" data-name="Caminho 6609-2" class="cls-3" d="M74.8,16.83H99.18L78.91,42.7H54.52Z"/><path id="Caminho_6610-2" data-name="Caminho 6610-2" class="cls-4" d="M74.8,16.83H85.1L64.83,42.7H54.52Z"/><path id="Caminho_6611-2" data-name="Caminho 6611-2" class="cls-5" d="M82.68,16.83H91.3L71,42.7H62.41Z"/><g id="Grupo_2085-2" data-name="Grupo 2085-2"><circle id="Elipse_146-2" data-name="Elipse 146-2" class="cls-6" cx="66.72" cy="72.59" r="25.26"/><path id="Caminho_6612-2" data-name="Caminho 6612-2" class="cls-6" d="M54.52,50.47V42.7H78.91v7.77L83,53.32V40.64A2.07,2.07,0,0,0,81,38.57H52.46a2.07,2.07,0,0,0-2.07,2.07h0V53.32Z"/></g><circle id="Elipse_147-2" data-name="Elipse 147-2" class="cls-7" cx="66.72" cy="72.59" r="18.91"/><path id="Caminho_6613-2" data-name="Caminho 6613-2" class="cls-4" d="M58.64,16.83H34.25L54.52,42.7H78.91Z"/><path id="Caminho_6614-2" data-name="Caminho 6614-2" class="cls-3" d="M58.64,16.83H48.33L68.6,42.7H78.91Z"/><path id="Caminho_6615-2" data-name="Caminho 6615-2" class="cls-5" d="M50.75,16.83H42.13L62.41,42.7H71Z"/></g><g id="_1" data-name=" 1" class="cls-8"><text class="cls-9" transform="translate(62.79 81.15)">1</text></g></g></g></svg>