<svg id="Camada_1" data-name="Camada 1" xmlns="http://www.w3.org/2000/svg" xmlns:xlink="http://www.w3.org/1999/xlink" viewBox="0 0 133.43 113.52"><defs><style>.cls-1{fill:none;}.cls-2{clip-path:url(#clip-path);}.cls-3{fill:#fcda33;}.cls-4{fill:#5b95d0;}.cls-5{fill:#f9b74b;}.cls-6{fill:#fff;}</style><clipPath id="clip-path"><rect class="cls-1" x="33.58" y="21.25" width="66.28" height="72.18"/></clipPath></defs><title>Icones_Maratona</title><g class="cls-2"><g id="medal"><circle id="Elipse_144" data-name="Elipse 144" class="cls-3" cx="66.65" cy="49.91" r="28.66"/><g id="Grupo_2084" data-name="Grupo 2084"><path id="Caminho_6606" data-name="Caminho 6606" class="cls-4" d="M43.44,66.67l-9.86,17.1,11.5-.61,5.23,10.27,9.13-15.82A28.56,28.56,0,0,1,43.44,66.67Z"/><path id="Caminho_6607" data-name="Caminho 6607" class="cls-4" d="M89.93,66.59a28.63,28.63,0,0,1-16,11l9.15,15.84,5.23-10.27,11.51.61Z"/></g><circle id="Elipse_145" data-name="Elipse 145" class="cls-5" cx="66.65" cy="49.91" r="20.77"/><path id="Caminho_6608" data-name="Caminho 6608" class="cls-6" d="M80.89,47.66a1.08,1.08,0,0,0,0-1.53,1,1,0,0,0-.61-.31l-8.2-1.2a1,1,0,0,1-.81-.6l-3.67-7.43a1.08,1.08,0,0,0-1.44-.5,1.1,1.1,0,0,0-.5.5L62,44a1.11,1.11,0,0,1-.81.6L53,45.82a1.08,1.08,0,0,0-.92,1.23,1.1,1.1,0,0,0,.32.61l5.92,5.79a1.07,1.07,0,0,1,.31.95l-1.39,8.15a1.09,1.09,0,0,0,.89,1.25,1.1,1.1,0,0,0,.69-.11l7.33-3.85a1.06,1.06,0,0,1,1,0l7.33,3.85A1.09,1.09,0,0,0,76,63.23a1.15,1.15,0,0,0,.11-.68L74.67,54.4a1.07,1.07,0,0,1,.31-.95Z"/></g></g></svg>