<svg id="Camada_1" data-name="Camada 1" xmlns="http://www.w3.org/2000/svg" viewBox="0 0 133.43 113.52"><defs><style>.cls-1{fill:#fdfdfd;}.cls-2{fill:none;stroke:#fdfdfd;stroke-miterlimit:10;stroke-width:5px;}</style></defs><title>Icones</title><g id="Grupo_565" data-name="Grupo 565"><path id="Caminho_1751" data-name="Caminho 1751" class="cls-1" d="M92.31,36.14H43a7.72,7.72,0,0,0-7.72,7.72h0V69.4A7.71,7.71,0,0,0,43,77.12H92.31A7.72,7.72,0,0,0,100,69.4V43.86a7.72,7.72,0,0,0-7.72-7.72Zm1.11,29.61c0,3-2.75,5.52-6.15,5.52H48c-3.4,0-6.15-2.47-6.15-5.52V47.51c0-3,2.75-5.52,6.15-5.52H87.27c3.41,0,6.15,2.47,6.15,5.52Z"/><path id="Caminho_1752" data-name="Caminho 1752" class="cls-2" d="M40.54,41.42,67,58.61,94.74,41.42"/></g></svg>