<svg id="Camada_1" data-name="Camada 1" xmlns="http://www.w3.org/2000/svg" viewBox="0 0 133.43 113.52"><defs><style>.cls-1{fill:#fff;fill-rule:evenodd;}</style></defs><title>Icones</title><g id="Grupo_920" data-name="Grupo 920"><path id="Caminho_2970" data-name="Caminho 2970" class="cls-1" d="M67.31,83.4a27.78,27.78,0,0,1-15.24-4.55L41.45,82.22,44.88,72A27.15,27.15,0,0,1,39.6,55.86a21.14,21.14,0,0,1,.16-2.64,27.73,27.73,0,0,1,55.2.5c.06.73.06,1.46.06,2.14A27.66,27.66,0,0,1,67.31,83.4ZM82.42,62.49c-.84-.4-4.77-2.36-5.5-2.64s-1.3-.39-1.86.45a39.18,39.18,0,0,1-2.53,3.09c-.5.56-1,.62-1.74.22a20.94,20.94,0,0,1-6.52-4,23.82,23.82,0,0,1-4.5-5.5c-.45-.85-.06-1.24.34-1.69A10.19,10.19,0,0,0,61.34,51a1.87,1.87,0,0,0,.29-.34,7.3,7.3,0,0,0,.5-1,1.38,1.38,0,0,0-.05-1.4c-.17-.4-1.8-4.39-2.48-6S58.26,41,57.8,41s-1-.06-1.57-.06a2.78,2.78,0,0,0-2.14,1,9,9,0,0,0-2.41,9.38,17.53,17.53,0,0,0,2.86,5.57c.4.56,5.57,8.88,13.77,12.08s8.27,2.14,9.73,2,4.77-1.92,5.45-3.83a6.35,6.35,0,0,0,.45-3.82c-.17-.28-.73-.5-1.52-.9Zm17.82-7.42a32.94,32.94,0,0,0-65.81-.62,11,11,0,0,0-.06,1.4,32.64,32.64,0,0,0,4.72,16.92l-6,17.54L51.4,84.52a33.06,33.06,0,0,0,48.9-28.67c0-.28-.06-.5-.06-.78Z"/></g></svg>